<?xml version="1.0" standalone="no"?>
<!DOCTYPE svg PUBLIC "-//W3C//DTD SVG 20010904//EN"
 "http://www.w3.org/TR/2001/REC-SVG-20010904/DTD/svg10.dtd">
<svg version="1.0" xmlns="http://www.w3.org/2000/svg"
 width="900.000000pt" height="900.000000pt" viewBox="0 0 900.000000 900.000000"
 preserveAspectRatio="xMidYMid meet">
<metadata>
Created by potrace 1.10, written by Peter Selinger 2001-2011
</metadata>
<g transform="translate(0.000000,900.000000) scale(0.100000,-0.100000)"
fill="#000000" stroke="none">
<path d="M4254 7206 c-3 -8 -1 -40 5 -72 6 -32 11 -88 11 -125 0 -65 15 -99
38 -85 5 3 39 10 76 16 42 7 74 18 86 30 27 27 27 83 0 101 -17 13 -18 18 -8
56 11 39 10 44 -12 68 -21 23 -31 25 -107 25 -62 0 -85 -4 -89 -14z m146 -64
c0 -40 -53 -58 -65 -22 -9 28 2 40 36 40 21 0 29 -5 29 -18z m14 -104 c8 -14
6 -21 -9 -33 -39 -29 -78 -3 -61 41 8 20 56 14 70 -8z"/>
<path d="M4822 7192 c-5 -9 -14 -51 -21 -92 -7 -41 -16 -95 -21 -120 -5 -26
-5 -49 0 -54 5 -5 46 -10 92 -10 71 -1 86 2 103 19 29 29 55 90 55 128 0 59
-65 127 -122 127 -15 0 -38 4 -52 10 -21 7 -27 6 -34 -8z m114 -87 c24 -37 9
-104 -28 -125 -24 -13 -29 -13 -42 0 -12 13 -12 24 2 83 18 75 38 87 68 42z"/>
<path d="M3975 7176 c-71 -20 -72 -23 -39 -140 8 -27 14 -71 14 -98 l0 -48 46
0 c56 0 130 18 144 35 8 10 8 20 0 35 -10 19 -17 21 -43 15 -62 -14 -82 -12
-85 12 -3 19 3 23 42 28 43 7 46 9 46 36 l0 30 -51 -7 c-49 -7 -51 -6 -47 17
2 20 11 26 48 33 50 10 60 19 53 47 -4 15 -14 19 -47 18 -22 -1 -59 -7 -81
-13z"/>
<path d="M3710 7111 c-8 -16 -6 -34 10 -80 41 -121 19 -141 -38 -33 -39 76
-60 93 -90 74 -11 -7 -10 -25 2 -98 9 -49 16 -93 16 -98 0 -14 -46 37 -53 59
-26 87 -34 100 -70 103 -53 5 -56 -22 -11 -89 20 -30 50 -82 66 -116 25 -54
33 -63 56 -63 34 0 74 37 63 59 -14 26 -20 87 -11 102 11 17 15 13 48 -52 26
-51 29 -54 62 -51 19 2 39 7 44 12 5 5 3 49 -4 102 -25 194 -22 183 -52 186
-19 2 -30 -3 -38 -17z"/>
<path d="M5187 7123 c-4 -3 -7 -20 -7 -37 -1 -17 -7 -42 -15 -56 -8 -14 -14
-35 -15 -47 0 -12 -9 -41 -21 -63 -25 -48 -18 -61 43 -79 24 -7 58 -19 76 -27
41 -18 39 -18 52 6 19 36 4 58 -46 66 -40 6 -44 9 -44 35 0 34 18 38 57 12 25
-16 26 -16 45 7 22 27 17 33 -34 50 -26 8 -38 17 -38 30 0 28 15 32 56 15 48
-20 61 -19 69 5 10 32 -12 60 -48 60 -18 0 -45 7 -61 15 -30 16 -58 19 -69 8z"/>
<path d="M5480 6963 c-1 -38 -5 -88 -11 -113 -23 -107 -23 -104 11 -122 46
-26 64 -22 96 20 15 20 54 64 86 97 64 66 74 99 33 109 -35 9 -47 0 -94 -70
-23 -34 -48 -65 -57 -68 -13 -5 -14 1 -8 42 3 26 13 62 20 81 20 48 17 66 -11
79 -56 26 -65 19 -65 -55z"/>
<path d="M5828 6838 c-8 -13 -18 -30 -22 -38 -16 -35 -65 -108 -88 -134 -10
-11 -18 -25 -18 -31 0 -15 32 -45 48 -45 6 0 17 -6 24 -13 23 -22 67 -47 82
-47 18 0 40 36 31 50 -4 6 -24 19 -46 30 -40 21 -43 27 -33 54 8 21 19 20 53
-5 23 -17 32 -19 50 -10 11 7 21 15 21 20 0 11 -31 36 -52 44 -21 8 -24 45 -4
53 7 3 26 -6 41 -20 32 -30 57 -33 76 -10 21 25 -11 60 -88 93 -11 5 -24 15
-28 20 -10 18 -32 12 -47 -11z"/>
<path d="M3030 6800 c-25 -16 -51 -30 -57 -30 -23 0 -14 -20 46 -110 33 -49
62 -98 66 -109 11 -37 41 -35 93 6 104 80 108 149 13 241 -44 43 -97 43 -161
2z m118 -62 c39 -43 41 -118 2 -118 -28 0 -95 107 -79 126 17 21 53 17 77 -8z"/>
<path d="M6110 6650 c-6 -12 -20 -31 -30 -43 -24 -29 -102 -126 -115 -143 -6
-9 -2 -18 15 -32 14 -11 43 -36 65 -56 46 -41 56 -43 78 -18 20 22 22 52 5 52
-7 0 -26 11 -43 24 l-29 24 67 76 c68 79 77 96 55 114 -29 23 -57 23 -68 2z"/>
<path d="M2787 6632 c-10 -10 -17 -23 -17 -27 0 -5 23 -33 51 -61 60 -61 58
-83 -4 -48 -23 13 -49 27 -57 30 -8 4 -22 13 -31 21 -14 12 -21 11 -48 -4 -40
-23 -39 -44 2 -85 18 -18 55 -62 82 -98 27 -36 50 -67 52 -69 6 -8 52 21 57
36 4 9 -16 37 -49 70 -65 66 -60 87 11 46 82 -48 109 -57 133 -41 33 21 25 50
-33 112 -29 32 -64 76 -77 97 -26 42 -47 48 -72 21z"/>
<path d="M6333 6418 c-17 -6 -49 -28 -70 -50 -36 -36 -38 -43 -38 -100 0 -58
2 -62 39 -94 33 -28 47 -34 87 -34 43 0 52 4 97 48 70 68 77 126 23 186 -24
26 -80 57 -98 55 -4 -1 -22 -6 -40 -11z m92 -92 c20 -31 10 -54 -41 -92 -29
-23 -40 -26 -62 -18 -42 15 -42 58 -1 100 41 42 81 45 104 10z"/>
<path d="M2502 6368 c-9 -11 -34 -39 -54 -61 -35 -37 -50 -77 -29 -77 5 0 48
-36 94 -80 47 -44 90 -80 96 -80 17 0 120 112 121 131 0 23 -25 42 -47 35 -10
-3 -27 -20 -37 -37 -12 -21 -24 -29 -39 -27 -31 4 -32 25 -3 51 14 14 26 34
26 46 0 33 -46 28 -77 -9 -13 -17 -29 -28 -34 -24 -18 11 -8 46 22 73 30 28
31 29 14 55 -21 32 -30 32 -53 4z"/>
<path d="M6590 6119 c-19 -17 -63 -49 -97 -71 -65 -42 -76 -64 -47 -92 20 -20
38 -20 54 0 8 8 21 19 31 25 15 7 21 4 33 -18 8 -16 30 -36 49 -46 29 -16 39
-17 58 -7 81 42 90 95 33 184 -43 66 -62 70 -114 25z m74 -75 c22 -21 20 -41
-5 -55 -46 -24 -96 34 -51 60 24 15 38 13 56 -5z"/>
<path d="M2281 6102 c-14 -20 -42 -60 -63 -88 -21 -28 -38 -56 -38 -63 0 -6
12 -17 26 -23 24 -11 29 -10 48 15 12 15 27 27 33 27 6 0 43 -25 81 -55 81
-63 105 -68 121 -25 10 30 9 31 -65 80 -42 28 -80 50 -85 50 -15 0 -10 36 6
50 20 17 19 33 -3 53 -26 24 -34 21 -61 -21z"/>
<path d="M6820 5836 c-8 -8 -55 -35 -104 -60 -49 -25 -93 -51 -97 -57 -6 -10
48 -126 72 -153 4 -5 19 -6 33 -2 32 8 34 33 6 69 -28 36 -26 67 4 67 19 0 27
-8 36 -36 9 -28 17 -34 33 -32 27 4 35 49 13 68 -9 7 -16 21 -16 32 0 27 52
21 60 -7 6 -26 32 -65 42 -65 5 0 17 9 28 20 20 20 26 40 12 40 -4 0 -19 21
-32 48 -44 83 -61 96 -90 68z"/>
<path d="M2082 5790 c-12 -34 -2 -43 73 -65 22 -7 40 -18 40 -26 0 -11 -17
-13 -78 -11 -71 2 -80 1 -97 -20 -24 -29 -25 -57 -2 -64 9 -3 31 -11 47 -19
17 -7 37 -16 45 -19 8 -3 38 -19 65 -35 74 -44 104 -37 105 21 0 8 -73 42
-114 52 -54 13 -12 28 76 27 80 -1 85 0 98 23 17 34 8 52 -37 72 -62 26 -76
33 -128 63 -64 38 -81 38 -93 1z"/>
<path d="M6960 5525 c-44 -22 -93 -42 -153 -61 -54 -17 -58 -20 -52 -44 10
-39 21 -45 58 -32 18 7 39 12 45 12 25 0 11 -39 -23 -64 -39 -30 -46 -63 -17
-89 27 -24 34 -21 59 22 l23 39 58 -5 c56 -5 59 -4 85 27 26 31 36 83 18 94
-5 3 -12 18 -15 33 -19 82 -35 95 -86 68z m30 -90 c15 -18 5 -64 -16 -72 -18
-7 -54 24 -54 47 0 36 46 53 70 25z"/>
<path d="M1952 5427 c-130 -87 -71 -249 93 -251 48 -1 65 3 81 19 64 63 72
133 23 183 -34 35 -109 72 -143 71 -11 0 -36 -10 -54 -22z m132 -88 c32 -25
33 -55 4 -80 -26 -23 -38 -24 -82 -3 -44 21 -62 54 -47 83 16 29 88 29 125 0z"/>
<path d="M1848 5060 c-30 -18 -59 -99 -56 -155 l3 -50 76 -6 c42 -4 82 -10 89
-14 7 -4 29 -11 48 -16 42 -9 62 2 62 36 0 28 -17 42 -55 47 -18 2 -31 10 -33
19 -2 13 10 20 48 29 52 12 70 31 70 70 0 19 -4 21 -27 17 -16 -2 -42 -11 -59
-18 -30 -12 -33 -11 -55 15 -26 30 -83 43 -111 26z m77 -84 c31 -47 -20 -89
-59 -50 -20 19 -20 24 0 52 20 29 40 28 59 -2z"/>
<path d="M6976 4971 c-3 -5 -3 -30 0 -55 8 -52 34 -77 60 -55 14 12 19 74 8
103 -7 17 -59 22 -68 7z"/>
<path d="M1767 4704 c-4 -4 -7 -46 -7 -94 l0 -87 137 -6 c146 -6 153 -4 153
40 0 25 -25 35 -75 31 -29 -3 -30 -2 -35 47 -5 45 -7 50 -30 50 -22 0 -25 -5
-28 -45 -4 -50 -17 -64 -45 -49 -15 9 -18 20 -15 62 3 49 2 52 -22 55 -14 2
-29 0 -33 -4z"/>
<path d="M6940 4536 c-14 -37 6 -58 53 -54 l42 3 5 -50 c4 -38 9 -51 24 -53
27 -6 39 12 40 60 1 39 3 43 26 43 23 0 25 -4 30 -60 4 -47 9 -61 23 -63 34
-7 42 13 41 98 -1 44 -4 83 -6 86 -3 2 -65 6 -137 8 -128 4 -133 3 -141 -18z"/>
<path d="M6932 4251 c-8 -4 -12 -21 -10 -37 3 -26 8 -30 43 -34 31 -4 41 -10
43 -26 3 -18 -4 -22 -37 -28 -42 -6 -84 -47 -79 -75 5 -21 63 -19 87 3 24 22
33 20 66 -14 61 -64 132 -25 154 85 7 33 13 66 14 74 2 16 -21 23 -138 40 -44
7 -91 14 -105 16 -14 3 -31 1 -38 -4z m202 -101 c5 -5 6 -20 2 -34 -8 -32 -50
-36 -66 -6 -16 30 4 63 33 54 12 -3 26 -10 31 -14z"/>
<path d="M1942 4047 c-6 -7 -8 -31 -5 -56 4 -32 12 -45 29 -53 48 -22 61 17
37 105 -5 20 -45 23 -61 4z"/>
<path d="M6904 3890 c-34 -14 -74 -75 -74 -115 0 -67 46 -116 128 -136 50 -12
57 -11 96 9 49 27 76 70 76 123 0 87 -133 157 -226 119z m114 -80 c40 -25 48
-44 32 -76 -10 -18 -22 -24 -48 -24 -72 0 -124 59 -87 100 23 25 61 25 103 0z"/>
<path d="M2141 3678 c-12 -12 -23 -30 -27 -40 -6 -20 -11 -21 -76 -18 -70 3
-97 -21 -97 -85 0 -28 6 -58 14 -69 8 -11 15 -29 15 -41 0 -12 5 -26 12 -33
14 -14 48 -16 48 -2 0 5 12 13 28 16 15 4 32 10 37 15 6 4 39 17 75 29 80 28
84 31 75 69 -7 35 -20 38 -61 16 -65 -34 -78 -8 -25 50 37 40 39 46 31 77 -6
18 -10 34 -10 35 0 10 -23 -1 -39 -19z m-72 -142 l23 -24 -21 -21 c-24 -24
-42 -26 -59 -9 -24 24 -8 78 23 78 6 0 22 -11 34 -24z"/>
<path d="M6758 3559 c-10 -5 -18 -21 -18 -33 0 -18 9 -28 40 -40 22 -9 49 -16
60 -16 10 0 22 -5 26 -11 12 -21 -21 -30 -88 -25 -71 5 -88 -3 -102 -51 -6
-19 -1 -25 41 -43 26 -12 80 -37 119 -57 83 -41 108 -41 112 3 3 29 0 31 -55
49 -32 10 -64 20 -72 22 -11 3 -12 6 -3 15 8 8 41 11 91 10 84 -2 94 2 106 50
6 22 3 29 -11 34 -29 8 -72 28 -148 65 -38 19 -72 35 -75 36 -3 1 -14 -2 -23
-8z"/>
<path d="M2278 3349 c-24 -14 -23 -26 7 -69 25 -37 26 -70 0 -70 -16 0 -41 29
-49 57 -6 19 -10 21 -32 11 -29 -14 -30 -32 -4 -66 17 -22 19 -28 7 -39 -20
-20 -44 -6 -57 33 -12 35 -38 44 -70 24 -15 -9 -10 -25 41 -110 37 -63 39 -63
99 -25 30 19 81 46 112 62 66 31 78 52 52 91 -10 15 -28 45 -40 67 -23 43 -39
51 -66 34z"/>
<path d="M6554 3186 c-9 -14 -14 -32 -11 -39 3 -7 41 -34 86 -60 84 -49 95
-65 64 -99 -16 -18 -15 -20 5 -41 24 -24 46 -18 66 19 6 10 31 50 56 88 42 65
43 69 25 82 -28 21 -42 17 -66 -15 l-22 -29 -61 40 c-33 23 -66 47 -71 53 -6
7 -20 15 -32 19 -17 5 -26 1 -39 -18z"/>
<path d="M2307 2989 c-29 -24 -37 -38 -37 -64 0 -18 7 -38 15 -45 8 -7 15 -19
15 -26 0 -8 3 -14 8 -14 4 0 15 -14 24 -30 26 -46 42 -46 95 -3 26 21 52 41
58 45 5 4 34 26 63 48 l52 41 -17 24 c-22 30 -44 31 -68 5 -26 -29 -46 -25
-78 15 -37 46 -77 47 -130 4z m104 -59 l24 -20 -29 -25 c-22 -20 -31 -23 -42
-14 -20 17 -27 48 -14 64 17 20 33 19 61 -5z"/>
<path d="M6385 2940 c-20 -28 -46 -57 -58 -65 -18 -12 -19 -18 -9 -40 12 -26
62 -37 62 -12 1 18 36 57 52 57 7 0 20 -5 28 -10 12 -8 9 -15 -20 -45 l-34
-35 23 -23 22 -22 32 36 c32 36 57 42 57 12 0 -8 -13 -31 -30 -50 -34 -38 -36
-46 -15 -63 19 -16 50 -5 70 27 10 14 31 39 47 55 27 26 29 33 19 51 -7 12
-35 39 -64 60 -29 20 -70 55 -92 77 -22 21 -43 39 -47 40 -3 0 -23 -23 -43
-50z"/>
<path d="M2625 2781 c-34 -15 -85 -73 -96 -112 -36 -117 106 -210 205 -134 46
35 76 87 76 133 0 28 -8 46 -35 76 -29 33 -41 39 -82 42 -26 2 -57 0 -68 -5z
m105 -85 c11 -21 10 -29 -7 -57 -10 -19 -32 -41 -49 -51 -27 -16 -32 -16 -52
-2 -32 22 -28 62 10 101 39 41 79 44 98 9z"/>
<path d="M6186 2729 c-18 -21 -17 -22 45 -82 34 -34 57 -63 51 -65 -6 -2 -44
13 -85 32 -40 20 -79 36 -85 36 -14 0 -52 -36 -52 -48 0 -5 29 -40 65 -78 36
-38 76 -83 88 -101 25 -38 37 -40 60 -15 27 30 20 47 -39 97 -75 64 -59 78 35
31 40 -20 80 -36 90 -36 19 0 51 29 51 47 0 5 -26 36 -58 69 -31 32 -70 76
-86 97 -32 42 -54 46 -80 16z"/>
<path d="M2917 2572 c-25 -28 -21 -39 23 -67 22 -14 40 -30 40 -36 0 -12 -87
-119 -107 -132 -33 -21 -4 -77 39 -77 7 0 44 43 82 95 38 52 73 95 78 95 4 0
8 8 8 18 0 11 -26 39 -61 66 -76 59 -81 61 -102 38z"/>
<path d="M5894 2483 c-27 -21 -57 -47 -66 -58 -26 -30 -23 -98 6 -143 51 -82
127 -97 208 -43 25 17 51 31 57 31 20 0 12 21 -32 78 -23 31 -59 83 -80 115
-20 31 -39 57 -41 57 -2 0 -25 -17 -52 -37z m73 -116 c39 -55 41 -90 5 -95
-27 -4 -57 20 -79 62 -12 23 -12 33 -2 57 16 40 35 34 76 -24z"/>
<path d="M3170 2389 c-14 -24 3 -59 29 -59 9 0 28 -11 40 -24 l23 -24 -22 -12
c-19 -10 -27 -9 -51 9 -36 27 -43 26 -57 -4 -10 -22 -8 -26 28 -46 22 -13 40
-29 40 -36 0 -23 -30 -27 -58 -6 -46 33 -50 34 -71 11 -30 -31 -26 -40 22 -62
23 -11 53 -28 66 -38 39 -30 56 -23 87 35 54 103 87 157 97 157 16 0 6 39 -12
45 -11 3 -37 18 -58 32 -57 39 -91 46 -103 22z"/>
<path d="M3465 2183 c-22 -31 -57 -74 -78 -95 -34 -36 -57 -69 -57 -81 0 -3
15 -10 33 -16 37 -14 44 -7 111 99 28 44 41 59 49 51 8 -8 7 -24 -2 -59 -31
-111 -32 -125 -5 -150 48 -45 58 -22 73 165 8 98 8 98 -18 120 -41 36 -61 29
-106 -34z"/>
<path d="M5426 2224 c-20 -19 -20 -25 -1 -94 19 -72 19 -73 -9 -55 -14 9 -33
36 -43 61 -17 41 -21 44 -54 44 -64 0 -71 -34 -33 -164 8 -27 14 -69 14 -93 0
-44 0 -44 31 -41 40 4 57 28 42 60 -29 60 -47 128 -36 139 8 8 14 5 24 -12 6
-13 15 -26 19 -29 3 -3 16 -26 29 -52 24 -50 37 -60 70 -51 22 6 27 32 12 61
-4 9 -11 41 -14 70 -5 45 -4 53 9 50 9 -2 27 -30 41 -63 34 -81 45 -93 77 -75
37 20 38 34 3 82 -43 58 -53 75 -79 130 -20 42 -27 48 -55 48 -17 0 -39 -7
-47 -16z"/>
<path d="M3764 2125 c-10 -39 1 -52 50 -59 40 -6 46 -10 46 -31 0 -33 -14 -39
-51 -20 -29 15 -32 15 -50 -1 -27 -24 -20 -37 27 -50 29 -8 40 -17 42 -34 3
-20 1 -22 -30 -17 -18 3 -45 9 -60 12 -21 6 -27 3 -33 -14 -11 -35 11 -61 51
-61 20 0 51 -7 70 -16 43 -20 64 -13 64 23 0 25 12 72 42 158 22 65 21 80 -7
93 -14 7 -38 12 -54 12 -15 0 -36 7 -47 15 -29 22 -53 18 -60 -10z"/>
<path d="M5045 2105 c-16 -8 -47 -14 -68 -15 -43 0 -56 -18 -39 -55 11 -23 12
-23 58 -9 51 15 68 9 62 -22 -2 -10 -19 -22 -43 -28 -44 -13 -57 -39 -27 -55
14 -7 29 -7 51 2 23 8 34 8 42 0 21 -21 2 -43 -35 -43 -31 0 -66 -20 -66 -39
0 -4 6 -15 13 -25 11 -15 19 -16 57 -7 25 6 56 13 70 15 14 3 34 11 44 19 19
14 19 16 3 50 -9 19 -17 43 -17 54 0 10 -7 40 -15 67 -8 27 -15 62 -15 78 0
23 -4 28 -22 27 -13 0 -36 -7 -53 -14z"/>
<path d="M4130 2043 c-48 -30 -64 -62 -64 -134 -1 -57 3 -71 22 -91 24 -27
111 -58 160 -58 l32 0 0 58 c1 31 5 77 11 102 23 109 23 112 4 126 -25 19
-133 16 -165 -3z m88 -103 c5 -80 -3 -102 -36 -98 -57 7 -67 84 -16 135 35 35
48 25 52 -37z"/>
<path d="M4661 2041 c-43 -18 -80 -54 -81 -79 0 -8 14 -27 31 -43 30 -28 31
-31 15 -48 -26 -28 -20 -64 15 -90 27 -20 40 -23 100 -19 37 2 72 7 76 12 9 8
5 158 -5 233 l-7 48 -50 2 c-30 1 -68 -5 -94 -16z m67 -53 c28 -28 1 -71 -39
-61 -28 8 -33 36 -9 55 26 21 32 22 48 6z m28 -123 c8 -20 -13 -45 -38 -45
-21 0 -33 22 -24 45 7 20 55 19 62 0z"/>
</g>
</svg>
