<svg id="svg" version="1.1" xmlns="http://www.w3.org/2000/svg" xmlns:xlink="http://www.w3.org/1999/xlink" width="400" height="400" viewBox="0, 0, 400,400"><g id="svgg"><path id="path0" d="M190.454 78.930 C 189.721 79.202,189.693 79.414,189.874 83.404 C 189.978 85.708,190.073 88.482,190.086 89.570 L 190.110 91.547 193.110 91.351 C 196.205 91.148,199.345 90.406,199.274 89.894 C 199.251 89.734,199.501 89.335,199.828 89.008 C 200.229 88.607,200.345 88.099,200.183 87.454 C 200.051 86.927,199.914 86.332,199.879 86.132 C 199.844 85.933,199.530 85.448,199.182 85.054 C 198.769 84.586,198.655 84.132,198.855 83.743 C 199.106 83.253,199.154 81.088,198.941 79.898 C 198.770 78.951,192.371 78.221,190.454 78.930 M214.416 80.045 C 214.401 80.530,214.300 81.259,214.194 81.667 C 214.087 82.074,213.972 82.824,213.939 83.333 C 213.905 83.843,213.744 84.470,213.580 84.728 C 213.416 84.986,213.320 85.570,213.366 86.025 C 213.413 86.480,213.341 87.435,213.207 88.148 C 212.478 92.027,212.414 91.949,216.685 92.399 C 218.667 92.607,219.358 92.520,220.741 91.889 C 221.657 91.470,222.241 91.118,222.037 91.107 C 221.833 91.097,221.917 90.885,222.222 90.636 C 223.524 89.579,224.606 84.447,223.651 83.856 C 223.470 83.744,223.404 83.519,223.505 83.355 C 223.606 83.191,223.192 82.538,222.585 81.902 C 221.978 81.267,221.479 80.871,221.476 81.022 C 221.473 81.173,221.344 81.098,221.190 80.856 C 221.036 80.614,220.497 80.331,219.992 80.227 C 219.487 80.123,218.657 79.945,218.148 79.830 C 214.880 79.097,214.446 79.122,214.416 80.045 M181.429 79.806 C 181.332 79.902,180.596 80.075,179.793 80.190 C 178.562 80.367,177.045 80.658,175.833 80.951 C 175.681 80.988,175.234 81.039,174.841 81.065 C 174.219 81.105,174.169 81.263,174.460 82.275 C 174.643 82.915,174.723 83.553,174.636 83.693 C 174.550 83.833,174.719 84.745,175.012 85.721 C 175.306 86.696,175.473 87.612,175.383 87.758 C 175.293 87.903,175.460 88.820,175.753 89.795 C 176.047 90.770,176.205 91.700,176.105 91.861 C 175.197 93.331,176.824 93.590,181.540 92.727 L 184.853 92.121 184.742 90.783 C 184.616 89.284,184.415 89.231,180.926 89.779 C 179.907 89.939,179.193 89.948,179.339 89.801 C 179.484 89.653,179.443 89.232,179.247 88.865 C 178.860 88.143,179.968 87.486,180.754 87.971 C 180.968 88.103,181.379 88.017,181.667 87.778 C 181.954 87.539,182.380 87.461,182.613 87.605 C 182.910 87.789,182.983 87.480,182.860 86.565 C 182.569 84.407,182.391 84.327,179.390 85.001 C 178.929 85.105,178.516 84.973,178.406 84.686 C 178.190 84.122,178.528 83.524,179.074 83.506 C 180.085 83.472,182.596 82.868,182.621 82.653 C 182.637 82.518,182.705 82.116,182.773 81.761 C 182.841 81.405,182.752 81.025,182.576 80.916 C 182.399 80.806,182.348 80.472,182.463 80.173 C 182.657 79.669,181.852 79.382,181.429 79.806 M195.622 82.016 C 195.760 82.209,195.522 82.671,195.092 83.044 C 194.341 83.695,193.618 83.791,193.676 83.231 C 193.691 83.084,193.704 82.619,193.704 82.199 C 193.704 81.400,195.084 81.269,195.622 82.016 M166.852 82.891 C 165.157 83.260,164.403 83.707,164.697 84.166 C 164.861 84.421,165.039 85.046,165.093 85.556 C 165.303 87.547,165.351 87.778,165.556 87.778 C 165.673 87.778,165.808 88.302,165.857 88.943 C 165.934 89.946,165.868 90.043,165.384 89.641 C 165.076 89.385,164.914 89.028,165.026 88.847 C 165.138 88.666,165.052 88.519,164.837 88.519 C 164.621 88.519,164.444 88.269,164.444 87.963 C 164.444 87.657,164.278 87.407,164.074 87.407 C 163.870 87.407,163.704 87.157,163.704 86.852 C 163.704 86.546,163.555 86.296,163.373 86.296 C 163.192 86.296,162.943 85.897,162.821 85.409 C 162.611 84.575,162.505 84.543,161.053 84.869 C 159.070 85.315,158.766 85.517,159.232 86.079 C 159.576 86.493,159.657 87.397,159.628 90.463 C 159.622 91.023,159.751 91.481,159.913 91.481 C 160.076 91.481,160.244 91.907,160.287 92.428 C 160.333 92.986,160.212 93.279,159.991 93.143 C 159.786 93.016,159.713 92.757,159.831 92.567 C 159.948 92.377,159.839 92.222,159.590 92.222 C 159.340 92.222,159.247 92.111,159.384 91.975 C 159.520 91.838,159.368 91.436,159.047 91.081 C 158.535 90.516,158.276 89.829,158.176 88.774 C 158.161 88.610,157.955 88.594,157.719 88.740 C 157.433 88.917,157.353 88.767,157.478 88.288 C 157.855 86.848,156.645 86.377,154.471 87.117 C 152.756 87.701,152.697 87.755,153.344 88.155 C 153.644 88.340,153.903 88.623,153.921 88.783 C 153.984 89.361,154.598 90.566,155.075 91.048 C 155.343 91.319,155.478 91.677,155.376 91.843 C 155.273 92.009,155.440 92.241,155.746 92.358 C 156.053 92.476,156.275 92.702,156.241 92.860 C 156.140 93.329,156.736 94.548,157.686 95.812 C 158.174 96.463,158.566 97.086,158.556 97.197 C 158.438 98.556,160.595 98.847,162.645 97.750 C 163.399 97.346,163.540 94.659,162.922 92.469 C 162.671 91.578,162.707 91.486,163.161 91.862 C 163.455 92.106,163.616 92.435,163.519 92.593 C 163.421 92.750,163.573 93.071,163.857 93.307 C 164.140 93.542,164.476 94.151,164.604 94.660 C 164.744 95.219,165.002 95.484,165.253 95.328 C 165.482 95.187,165.572 95.229,165.452 95.423 C 164.810 96.463,165.842 96.646,168.078 95.891 C 169.340 95.465,170.297 94.995,170.205 94.847 C 170.113 94.698,169.997 93.880,169.946 93.029 C 169.896 92.178,169.703 91.481,169.517 91.481 C 169.331 91.481,169.284 91.065,169.411 90.556 C 169.539 90.046,169.501 89.630,169.327 89.630 C 169.153 89.630,168.973 88.592,168.927 87.323 C 168.881 86.054,168.670 84.908,168.456 84.776 C 168.243 84.645,168.175 84.203,168.305 83.794 C 168.567 82.968,168.029 82.634,166.852 82.891 M231.111 83.311 C 231.111 83.707,230.944 84.133,230.741 84.259 C 230.537 84.385,230.370 84.978,230.370 85.577 C 230.370 86.177,230.204 86.667,230.000 86.667 C 229.796 86.667,229.667 86.792,229.712 86.944 C 229.758 87.097,229.506 88.092,229.153 89.155 C 228.800 90.218,228.532 91.218,228.559 91.377 C 228.585 91.537,228.566 91.792,228.516 91.944 C 228.466 92.097,228.399 92.347,228.367 92.500 C 228.334 92.653,228.091 93.167,227.827 93.643 C 227.563 94.119,227.403 94.542,227.470 94.584 C 228.323 95.115,235.743 96.998,235.994 96.747 C 237.166 95.575,236.503 94.277,234.386 93.601 C 232.571 93.022,231.146 91.852,232.256 91.852 C 232.465 91.852,232.540 91.697,232.423 91.507 C 232.306 91.317,232.380 91.058,232.587 90.930 C 232.794 90.802,232.963 90.883,232.963 91.111 C 232.963 91.339,233.118 91.429,233.308 91.312 C 233.497 91.195,233.759 91.271,233.889 91.481 C 234.019 91.692,234.299 91.757,234.511 91.625 C 234.724 91.494,235.040 91.616,235.213 91.897 C 235.676 92.645,236.672 91.546,236.773 90.177 C 236.839 89.287,236.670 89.056,235.741 88.772 C 234.145 88.283,233.582 87.969,233.417 87.474 C 233.202 86.828,234.374 86.510,235.303 86.961 C 237.751 88.150,238.294 88.108,238.785 86.696 C 239.328 85.133,238.943 84.684,236.489 84.020 C 235.670 83.799,234.372 83.387,233.604 83.105 C 231.711 82.411,231.111 82.460,231.111 83.311 M219.732 83.658 C 220.619 84.545,220.029 87.688,218.777 88.741 C 217.149 90.111,216.632 89.925,216.864 88.056 C 217.130 85.908,217.540 83.603,217.749 83.077 C 217.825 82.887,219.432 83.358,219.732 83.658 M196.331 87.020 C 196.452 87.326,196.368 87.752,196.146 87.967 C 195.673 88.422,193.706 88.639,193.699 88.237 C 193.696 88.086,193.589 87.573,193.462 87.097 C 193.182 86.053,195.920 85.979,196.331 87.020 M244.405 86.778 C 244.384 86.819,244.321 87.519,244.266 88.333 C 244.211 89.148,244.131 89.815,244.089 89.815 C 243.978 89.815,243.739 91.416,243.564 93.333 C 243.480 94.250,243.314 95.250,243.193 95.556 C 243.073 95.861,242.931 96.939,242.876 97.951 L 242.778 99.790 244.444 100.614 C 245.361 101.067,246.213 101.448,246.337 101.460 C 246.643 101.489,248.822 99.327,250.185 97.639 C 250.796 96.883,251.933 95.563,252.710 94.706 C 253.488 93.849,254.353 92.893,254.634 92.581 C 255.336 91.801,254.878 91.231,253.025 90.577 C 251.574 90.065,251.431 90.072,251.212 90.659 C 251.082 91.010,250.669 91.516,250.296 91.785 C 249.923 92.053,249.713 92.428,249.830 92.618 C 249.948 92.808,249.867 92.963,249.651 92.963 C 249.436 92.963,249.259 93.213,249.259 93.519 C 249.259 93.824,249.027 94.074,248.743 94.074 C 248.297 94.074,247.629 95.002,247.676 95.556 C 247.685 95.657,247.352 96.074,246.937 96.481 L 246.183 97.222 246.475 96.481 C 246.636 96.074,246.779 95.366,246.791 94.907 C 246.804 94.449,246.943 94.074,247.099 94.074 C 247.256 94.074,247.288 93.824,247.171 93.519 C 247.054 93.213,247.084 92.671,247.238 92.315 C 247.393 91.958,247.565 91.333,247.621 90.926 C 247.678 90.519,247.831 89.840,247.962 89.419 C 248.102 88.967,247.999 88.488,247.711 88.254 C 247.229 87.861,244.482 86.635,244.405 86.778 M258.604 96.892 C 257.734 98.223,257.234 99.190,257.492 99.041 C 257.751 98.892,257.627 99.171,257.216 99.662 C 255.908 101.225,254.815 102.918,254.815 103.382 C 254.815 103.629,254.523 104.160,254.167 104.562 C 253.753 105.029,253.667 105.346,253.931 105.438 C 254.157 105.518,255.796 106.496,257.571 107.610 C 260.991 109.758,261.191 109.785,262.006 108.209 C 262.517 107.220,262.496 107.188,260.521 105.938 C 258.376 104.580,258.079 103.965,259.265 103.330 C 259.851 103.016,260.058 103.053,260.229 103.500 C 260.350 103.814,260.597 103.978,260.780 103.865 C 260.962 103.752,261.111 103.836,261.111 104.052 C 261.111 104.268,261.347 104.444,261.636 104.444 C 261.924 104.444,262.223 104.631,262.298 104.858 C 262.374 105.086,262.872 104.615,263.403 103.811 L 264.370 102.351 263.120 101.677 C 262.432 101.307,261.574 100.666,261.213 100.253 C 260.851 99.840,260.764 99.624,261.019 99.773 C 261.332 99.957,261.485 99.768,261.493 99.189 C 261.503 98.429,261.546 98.406,261.882 98.981 C 262.089 99.338,262.501 99.630,262.796 99.630 C 263.092 99.630,263.333 99.770,263.333 99.941 C 263.333 100.112,263.758 100.445,264.277 100.681 C 265.298 101.146,266.576 101.268,266.169 100.861 C 266.032 100.723,266.282 100.224,266.726 99.751 C 267.170 99.279,267.464 98.843,267.378 98.784 C 265.560 97.530,262.947 95.971,262.339 95.778 C 261.904 95.640,261.346 95.283,261.099 94.986 C 260.431 94.180,260.320 94.264,258.604 96.892 M137.315 96.338 C 136.958 96.539,136.667 96.605,136.667 96.485 C 136.667 96.365,136.458 96.444,136.204 96.661 C 135.949 96.877,134.991 97.439,134.074 97.909 C 132.372 98.781,131.720 100.201,132.827 100.626 C 133.105 100.733,133.333 101.030,133.333 101.287 C 133.333 101.544,134.075 102.859,134.981 104.210 C 135.887 105.561,136.539 106.667,136.431 106.667 C 136.323 106.667,136.744 107.310,137.366 108.096 C 137.989 108.883,138.392 109.633,138.262 109.763 C 138.131 109.893,138.163 110.000,138.332 110.000 C 139.066 110.000,144.893 105.940,144.195 105.915 C 144.027 105.908,144.184 105.732,144.545 105.522 C 144.906 105.312,145.100 104.976,144.976 104.776 C 144.852 104.576,144.963 104.157,145.222 103.844 C 145.606 103.381,145.595 103.215,145.161 102.940 C 144.869 102.755,144.815 102.601,145.041 102.598 C 145.280 102.595,145.378 102.203,145.276 101.667 C 145.178 101.157,144.952 100.741,144.772 100.741 C 144.592 100.741,144.444 100.398,144.444 99.978 C 144.444 99.559,144.278 99.319,144.074 99.444 C 143.870 99.570,143.704 99.436,143.704 99.146 C 143.704 97.129,139.325 95.205,137.315 96.338 M139.259 99.697 C 139.259 99.864,139.409 99.958,139.593 99.907 C 139.776 99.856,139.980 99.981,140.046 100.185 C 140.112 100.389,140.380 100.806,140.641 101.111 C 140.903 101.417,141.132 101.833,141.151 102.037 C 141.169 102.241,141.340 102.700,141.532 103.057 C 141.787 103.534,141.680 103.920,141.125 104.515 C 140.710 104.961,140.370 105.488,140.370 105.687 C 140.370 105.886,140.273 105.952,140.154 105.833 C 140.035 105.715,139.942 105.478,139.947 105.309 C 139.951 105.139,139.603 104.625,139.172 104.167 C 138.742 103.708,138.516 103.333,138.670 103.333 C 138.825 103.333,138.470 102.708,137.882 101.944 C 136.974 100.764,136.745 100.138,136.991 99.512 C 137.097 99.242,139.259 99.419,139.259 99.697 M272.465 103.640 C 272.128 104.013,271.852 104.473,271.852 104.662 C 271.852 104.852,271.519 105.215,271.111 105.470 C 270.704 105.724,270.370 106.144,270.370 106.403 C 270.370 106.662,270.037 107.114,269.630 107.407 C 269.222 107.701,268.889 108.068,268.889 108.224 C 268.889 108.379,268.473 108.967,267.965 109.531 C 267.458 110.094,266.641 111.037,266.151 111.625 L 265.260 112.694 268.385 115.270 C 271.378 117.737,272.593 118.202,272.593 116.882 C 272.593 116.580,272.856 116.186,273.177 116.006 C 273.652 115.740,273.411 115.412,271.881 114.245 C 270.024 112.829,269.589 112.222,270.432 112.222 C 270.670 112.222,270.763 112.121,270.640 111.998 C 270.517 111.875,270.847 111.375,271.373 110.887 C 271.900 110.399,272.214 110.000,272.072 110.000 C 271.930 110.000,272.263 109.583,272.813 109.074 C 273.362 108.565,273.696 108.148,273.554 108.148 C 273.411 108.148,273.718 107.757,274.234 107.278 C 274.751 106.799,275.065 106.299,274.932 106.167 C 274.800 106.034,274.886 105.926,275.123 105.926 C 275.907 105.926,275.574 104.954,274.448 103.950 C 273.130 102.776,273.232 102.792,272.465 103.640 M123.976 105.094 L 122.999 106.114 125.018 108.335 C 126.128 109.556,127.023 110.722,127.007 110.926 C 126.992 111.130,126.894 111.087,126.791 110.831 C 126.688 110.575,126.451 110.460,126.265 110.575 C 126.078 110.690,125.926 110.598,125.926 110.370 C 125.926 110.143,125.759 110.059,125.556 110.185 C 125.352 110.311,125.185 110.220,125.185 109.982 C 125.185 109.745,124.935 109.646,124.630 109.764 C 124.324 109.881,124.074 109.852,124.074 109.699 C 124.074 109.425,122.198 108.544,121.096 108.302 C 120.782 108.233,120.048 108.587,119.464 109.088 C 118.881 109.590,118.263 110.000,118.091 110.000 C 117.460 110.000,117.812 110.656,119.259 112.178 C 120.074 113.034,120.741 113.895,120.741 114.090 C 120.741 114.285,120.980 114.444,121.271 114.444 C 121.563 114.444,121.896 114.736,122.011 115.093 C 122.126 115.449,122.804 116.375,123.518 117.150 C 124.231 117.925,124.815 118.711,124.815 118.896 C 124.815 119.900,126.181 119.906,127.325 118.908 L 128.510 117.873 127.201 116.159 C 126.481 115.216,125.733 114.444,125.539 114.444 C 125.344 114.444,125.185 114.222,125.185 113.951 C 125.185 113.679,125.435 113.457,125.741 113.457 C 126.046 113.457,126.296 113.606,126.296 113.787 C 126.296 113.969,126.463 114.015,126.667 113.889 C 126.870 113.763,127.037 113.836,127.037 114.052 C 127.037 114.268,127.361 114.444,127.756 114.444 C 128.151 114.444,128.579 114.614,128.707 114.821 C 128.835 115.028,129.082 115.110,129.255 115.003 C 129.428 114.896,129.816 115.054,130.117 115.355 C 130.599 115.837,130.843 115.771,132.184 114.800 C 134.067 113.436,134.152 113.853,131.255 110.260 C 125.965 103.700,125.576 103.424,123.976 105.094 M282.404 114.079 C 282.291 114.262,281.926 114.308,281.594 114.180 C 281.158 114.013,281.074 114.084,281.293 114.439 C 281.491 114.760,281.453 114.841,281.180 114.672 C 280.724 114.390,278.519 116.306,278.519 116.985 C 278.519 117.217,278.241 117.407,277.901 117.407 C 277.562 117.407,277.387 117.511,277.513 117.637 C 277.639 117.763,277.499 118.110,277.201 118.407 C 276.903 118.705,276.746 119.088,276.851 119.258 C 276.956 119.428,276.881 119.992,276.683 120.511 C 276.445 121.140,276.452 121.534,276.706 121.691 C 276.916 121.821,277.002 122.149,276.898 122.421 C 276.637 123.100,279.196 125.940,280.556 126.481 C 281.423 126.827,283.889 126.965,283.889 126.668 C 283.889 126.636,284.206 126.550,284.593 126.478 C 284.980 126.405,285.400 126.178,285.526 125.974 C 285.652 125.769,286.227 125.423,286.803 125.204 C 287.378 124.985,287.936 124.475,288.042 124.070 C 288.148 123.665,288.382 123.333,288.562 123.333 C 288.742 123.333,288.889 123.014,288.889 122.623 C 288.889 122.233,289.052 121.858,289.251 121.790 C 289.450 121.722,289.726 121.099,289.864 120.405 C 290.061 119.417,290.011 119.209,289.630 119.444 C 289.300 119.648,289.234 119.600,289.423 119.294 C 289.999 118.363,288.600 116.037,286.503 114.437 C 285.866 113.952,285.821 113.952,286.111 114.444 C 286.401 114.936,286.361 114.937,285.765 114.453 C 285.000 113.831,282.714 113.577,282.404 114.079 M111.643 116.437 C 111.249 116.922,110.134 118.185,109.167 119.244 C 108.199 120.302,107.407 121.330,107.407 121.527 C 107.407 122.046,109.139 123.700,109.405 123.434 C 109.529 123.311,109.630 123.451,109.630 123.745 C 109.630 124.040,109.976 124.526,110.399 124.826 C 111.062 125.295,113.315 127.308,115.679 129.543 C 116.330 130.158,116.468 130.067,118.927 127.407 C 122.433 123.614,122.461 123.554,121.100 122.585 L 119.979 121.787 118.381 123.528 C 116.788 125.262,116.778 125.267,115.706 124.686 C 114.963 124.284,114.831 124.099,115.278 124.089 C 115.634 124.081,115.926 123.839,115.926 123.551 C 115.926 123.264,116.413 122.619,117.008 122.118 L 118.090 121.208 117.023 120.419 C 115.618 119.380,115.367 119.414,114.111 120.821 C 113.212 121.827,112.957 121.938,112.473 121.536 C 111.868 121.034,112.087 120.649,114.266 118.373 C 114.678 117.944,114.943 117.633,114.855 117.683 C 114.767 117.733,114.501 117.399,114.262 116.942 C 114.023 116.485,113.634 116.153,113.396 116.204 C 113.158 116.255,112.963 116.130,112.963 115.926 C 112.963 115.295,112.393 115.516,111.643 116.437 M285.792 118.483 C 286.605 120.114,284.866 122.557,282.683 122.850 C 280.912 123.087,280.148 122.357,280.577 120.838 C 280.736 120.275,280.879 119.699,280.896 119.558 C 280.932 119.252,282.593 117.665,282.593 117.937 C 282.593 118.040,282.968 117.972,283.426 117.785 C 284.639 117.291,285.294 117.484,285.792 118.483 M295.463 126.181 C 295.106 126.274,294.815 126.505,294.815 126.694 C 294.815 126.883,294.565 127.037,294.259 127.037 C 293.954 127.037,293.704 127.204,293.704 127.407 C 293.704 127.611,293.484 127.778,293.215 127.778 C 292.946 127.778,292.364 128.194,291.921 128.704 C 291.478 129.213,290.896 129.630,290.628 129.630 C 290.359 129.630,289.817 129.930,289.422 130.296 C 289.027 130.663,288.167 131.279,287.512 131.666 C 285.918 132.605,285.831 133.000,286.914 134.383 C 287.808 135.525,288.889 135.952,288.889 135.163 C 288.889 134.948,289.056 134.874,289.259 135.000 C 289.463 135.126,289.630 134.941,289.630 134.590 C 289.630 134.238,289.739 134.060,289.873 134.194 C 290.007 134.328,290.314 134.274,290.556 134.074 C 290.862 133.819,291.291 134.043,291.981 134.818 C 292.524 135.427,293.144 135.926,293.358 135.926 C 293.572 135.926,293.652 136.081,293.535 136.270 C 292.973 137.178,297.867 137.132,298.704 136.221 C 298.959 135.943,298.930 135.898,298.611 136.079 C 298.356 136.222,298.148 136.243,298.148 136.124 C 298.148 136.005,298.565 135.749,299.074 135.556 C 299.583 135.362,300.013 134.991,300.029 134.731 C 300.044 134.472,300.092 133.676,300.134 132.963 C 300.224 131.447,297.143 125.799,296.319 125.969 C 296.205 125.993,295.819 126.088,295.463 126.181 M102.047 127.918 C 101.532 128.592,101.111 129.316,101.111 129.527 C 101.111 129.737,100.857 130.120,100.546 130.379 C 99.826 130.976,97.778 133.998,97.778 134.463 C 97.778 134.657,97.569 134.821,97.315 134.828 C 96.749 134.844,98.905 136.662,99.493 136.665 C 99.724 136.666,100.375 136.060,100.941 135.318 C 101.854 134.121,102.020 134.037,102.415 134.577 C 102.659 134.911,103.049 135.185,103.282 135.185 C 103.514 135.185,103.704 135.362,103.704 135.577 C 103.704 135.793,103.862 135.872,104.055 135.752 C 104.249 135.633,104.591 135.877,104.815 136.296 C 105.039 136.715,105.363 136.971,105.535 136.864 C 105.707 136.758,105.948 136.931,106.070 137.248 C 106.191 137.565,106.460 137.720,106.667 137.593 C 106.873 137.465,107.142 137.621,107.264 137.939 C 107.387 138.258,107.719 138.519,108.003 138.519 C 108.286 138.519,108.519 138.695,108.519 138.911 C 108.519 139.126,108.685 139.200,108.889 139.074 C 109.093 138.948,109.259 139.047,109.259 139.293 C 109.259 139.539,109.759 139.051,110.370 138.207 C 110.981 137.363,111.481 136.601,111.481 136.513 C 111.481 136.375,108.208 134.071,105.337 132.189 C 103.959 131.285,103.929 131.202,104.611 130.162 C 106.110 127.874,103.693 125.759,102.047 127.918 M296.926 132.178 C 296.876 132.508,296.672 132.836,296.473 132.907 C 296.274 132.978,295.840 133.181,295.510 133.358 C 294.616 133.836,293.500 132.512,294.030 131.601 C 294.245 131.230,294.427 131.063,294.433 131.230 C 294.439 131.397,294.714 131.265,295.044 130.935 C 295.761 130.218,297.091 131.096,296.926 132.178 M304.312 139.815 C 304.007 140.120,303.521 140.370,303.232 140.370 C 302.943 140.370,302.409 140.700,302.045 141.102 C 301.681 141.505,301.257 141.757,301.104 141.662 C 300.950 141.567,300.620 141.736,300.370 142.037 C 300.121 142.338,299.787 142.505,299.630 142.407 C 299.472 142.310,299.137 142.479,298.886 142.782 C 298.634 143.085,298.204 143.333,297.930 143.333 C 297.657 143.333,296.708 143.793,295.822 144.355 L 294.211 145.377 296.045 148.782 C 297.922 152.267,298.452 152.721,299.907 152.093 C 300.978 151.631,300.961 151.442,299.630 149.016 C 298.431 146.832,298.317 146.498,298.889 146.852 C 299.093 146.978,299.259 146.909,299.259 146.700 C 299.259 146.171,300.478 146.670,300.916 147.379 C 301.265 147.944,301.337 148.147,301.435 148.849 C 301.526 149.497,302.451 149.536,303.583 148.939 L 304.732 148.333 303.879 146.487 C 303.410 145.472,303.105 144.514,303.202 144.358 C 303.640 143.648,304.428 144.213,305.153 145.756 C 306.082 147.731,306.654 148.046,307.870 147.249 C 308.361 146.927,308.875 146.776,309.011 146.912 C 309.612 147.513,309.172 146.178,308.234 144.553 C 307.670 143.577,306.810 141.986,306.324 141.019 C 305.362 139.106,305.149 138.978,304.312 139.815 M93.059 142.139 L 92.229 143.746 94.633 144.871 C 97.895 146.397,97.853 146.523,94.104 146.441 L 90.852 146.370 90.049 148.024 C 89.100 149.977,89.127 150.045,91.186 150.911 C 93.147 151.736,96.698 153.513,98.785 154.713 L 100.347 155.612 101.098 154.380 C 102.183 152.601,102.108 152.454,99.352 150.985 L 96.852 149.651 98.333 149.599 C 99.148 149.570,100.641 149.524,101.652 149.496 C 103.388 149.447,103.534 149.364,104.321 147.966 C 105.333 146.169,105.751 146.557,99.259 143.260 L 93.889 140.532 93.059 142.139 M311.852 153.281 C 311.852 153.538,311.697 153.652,311.507 153.534 C 311.317 153.417,311.056 153.493,310.926 153.704 C 310.796 153.914,310.534 153.990,310.345 153.873 C 310.155 153.756,310.000 153.864,310.000 154.114 C 310.000 154.364,309.890 154.458,309.756 154.324 C 309.622 154.190,309.289 154.266,309.016 154.493 C 308.742 154.720,308.519 154.781,308.519 154.630 C 308.519 154.478,308.277 154.554,307.982 154.799 C 307.687 155.043,306.937 155.324,306.315 155.422 C 305.693 155.520,304.726 155.839,304.166 156.131 C 303.606 156.423,302.934 156.663,302.672 156.664 C 301.061 156.672,300.447 157.736,301.064 159.451 C 301.637 161.046,302.624 161.440,303.333 160.358 C 303.642 159.888,305.666 159.785,305.817 160.232 C 305.894 160.461,305.408 161.113,304.738 161.680 C 304.067 162.248,303.560 162.852,303.611 163.023 C 303.662 163.194,303.495 163.292,303.241 163.241 C 302.672 163.127,302.806 164.349,303.560 166.154 C 304.136 167.531,304.688 167.632,305.344 166.483 C 305.562 166.100,306.200 165.386,306.760 164.897 C 307.334 164.396,307.667 163.819,307.522 163.577 C 307.352 163.293,307.457 163.304,307.833 163.608 C 308.146 163.861,308.511 163.958,308.645 163.824 C 308.779 163.690,308.889 163.748,308.889 163.952 C 308.889 164.157,309.472 164.346,310.185 164.373 C 310.898 164.400,311.481 164.253,311.481 164.047 C 311.481 163.840,311.690 163.705,311.944 163.746 C 312.700 163.868,313.704 163.293,313.704 162.738 C 313.704 162.454,313.888 162.222,314.114 162.222 C 314.339 162.222,314.428 161.972,314.311 161.667 C 314.193 161.361,314.249 161.111,314.435 161.111 C 314.620 161.111,314.687 160.736,314.582 160.278 C 314.477 159.819,314.362 159.194,314.325 158.889 C 314.128 157.241,311.852 152.080,311.852 153.281 M87.677 157.873 C 87.119 158.059,86.756 158.364,86.871 158.550 C 86.987 158.736,86.817 158.889,86.495 158.889 C 86.173 158.889,85.720 159.306,85.488 159.815 C 85.256 160.324,84.899 160.741,84.694 160.741 C 84.489 160.741,84.419 160.839,84.540 160.959 C 84.660 161.080,84.546 161.788,84.286 162.533 C 84.027 163.279,83.858 164.056,83.912 164.259 C 83.965 164.463,84.112 165.095,84.238 165.663 C 84.363 166.232,84.628 166.597,84.826 166.475 C 85.023 166.353,85.185 166.420,85.185 166.626 C 85.185 167.255,86.823 168.786,87.315 168.617 C 87.569 168.529,87.778 168.619,87.778 168.818 C 87.778 169.592,92.432 170.224,93.234 169.558 C 93.492 169.344,93.704 169.278,93.704 169.412 C 93.704 170.086,95.277 168.679,96.106 167.264 C 97.336 165.166,97.634 162.496,96.755 161.468 C 96.401 161.055,96.111 160.532,96.111 160.306 C 96.111 160.080,95.778 159.711,95.370 159.485 C 94.963 159.259,94.546 158.974,94.444 158.852 C 93.535 157.760,89.686 157.204,87.677 157.873 M311.072 158.609 C 311.286 159.186,311.197 159.685,310.782 160.241 C 310.454 160.682,310.129 160.890,310.061 160.704 C 309.993 160.518,309.826 160.433,309.691 160.514 C 309.555 160.596,309.230 160.430,308.967 160.146 C 308.704 159.862,308.600 159.630,308.734 159.630 C 308.869 159.630,308.772 159.380,308.519 159.074 C 308.141 158.619,308.166 158.519,308.658 158.519 C 308.989 158.519,309.259 158.352,309.259 158.148 C 309.259 157.403,310.768 157.787,311.072 158.609 M91.389 161.586 C 91.644 161.494,91.852 161.600,91.852 161.821 C 91.852 162.042,92.098 162.222,92.398 162.222 C 93.188 162.222,94.229 164.367,93.730 164.968 C 93.515 165.227,93.422 165.548,93.522 165.682 C 93.622 165.816,93.612 165.862,93.500 165.784 C 93.388 165.706,92.726 165.771,92.029 165.928 C 90.941 166.173,88.909 165.549,87.874 164.652 C 86.526 163.485,88.739 160.633,90.353 161.459 C 90.668 161.620,91.134 161.677,91.389 161.586 M83.540 174.361 C 83.464 174.438,83.094 174.543,82.719 174.596 C 82.344 174.649,81.803 175.178,81.517 175.772 C 81.230 176.366,80.854 176.908,80.681 176.976 C 80.508 177.044,80.451 177.239,80.556 177.408 C 80.660 177.577,80.593 178.118,80.406 178.610 C 79.748 180.339,79.537 183.328,80.068 183.390 C 80.906 183.487,81.276 183.581,81.927 183.865 C 82.273 184.016,82.720 184.039,82.920 183.916 C 83.119 183.792,83.378 183.846,83.494 184.035 C 83.611 184.224,83.998 184.334,84.353 184.279 C 84.709 184.224,85.750 184.388,86.667 184.644 C 87.583 184.899,88.583 185.104,88.889 185.099 C 89.194 185.093,90.069 185.212,90.833 185.363 C 92.064 185.607,92.222 185.554,92.222 184.902 C 92.222 184.498,92.328 183.638,92.457 182.993 C 92.586 182.347,92.544 181.846,92.364 181.879 C 92.184 181.912,91.954 181.903,91.852 181.859 C 91.690 181.788,90.412 181.591,88.981 181.415 C 87.577 181.242,89.161 180.077,91.019 179.917 C 91.273 179.895,91.481 179.720,91.481 179.528 C 91.481 179.337,91.705 179.266,91.978 179.371 C 92.838 179.700,93.216 179.135,93.477 177.130 C 93.720 175.259,93.319 174.582,92.470 175.432 C 92.334 175.567,91.780 175.725,91.238 175.783 C 90.696 175.841,90.154 176.022,90.034 176.185 C 89.635 176.726,88.714 176.497,87.888 175.650 C 87.439 175.191,86.805 174.815,86.477 174.815 C 86.150 174.815,85.965 174.681,86.065 174.519 C 86.243 174.232,83.820 174.081,83.540 174.361 M85.990 179.397 C 86.275 179.916,86.259 180.020,85.923 179.813 C 85.606 179.617,85.546 179.757,85.716 180.293 C 85.923 180.946,85.159 181.224,84.537 180.723 C 84.415 180.624,83.806 180.475,83.294 180.417 C 83.051 180.389,82.994 180.106,83.153 179.722 C 83.301 179.366,83.429 178.866,83.439 178.611 C 83.449 178.356,83.679 178.148,83.951 178.148 C 84.222 178.148,84.450 177.940,84.456 177.685 C 84.468 177.212,85.302 178.143,85.990 179.397 M311.818 178.248 L 310.488 178.564 310.780 180.410 C 311.227 183.235,311.449 183.704,312.340 183.698 C 313.776 183.688,313.913 183.321,313.519 180.539 L 313.148 177.931 311.818 178.248 M78.766 190.305 C 78.196 191.383,78.519 198.523,79.140 198.579 C 80.470 198.697,82.844 198.824,86.944 198.998 L 91.111 199.174 91.111 197.365 C 91.111 195.393,91.181 195.443,88.333 195.395 L 86.852 195.370 86.945 193.333 L 87.037 191.296 85.444 191.233 C 84.041 191.177,83.847 191.266,83.829 191.974 C 83.779 193.953,83.669 194.426,83.137 194.958 C 82.149 195.946,81.667 195.321,81.667 193.052 C 81.667 191.883,81.545 190.874,81.396 190.809 C 80.424 190.392,78.877 190.095,78.766 190.305 M309.311 197.005 C 308.652 197.412,308.848 200.733,309.516 200.477 C 309.787 200.373,310.757 200.400,311.671 200.537 L 313.333 200.786 313.333 202.569 C 313.333 204.269,313.387 204.363,314.491 204.583 C 316.779 205.041,316.794 205.026,316.540 202.593 C 316.314 200.436,316.333 200.370,317.187 200.370 C 318.220 200.370,318.716 202.088,318.309 204.259 L 318.066 205.556 319.600 205.556 C 321.430 205.556,321.386 205.659,321.581 200.890 L 321.734 197.151 319.108 197.122 C 317.663 197.107,314.972 197.010,313.128 196.907 C 311.283 196.804,309.565 196.848,309.311 197.005 M308.472 210.830 C 308.260 212.936,308.376 213.880,308.835 213.783 C 309.111 213.725,309.532 213.840,309.771 214.038 C 310.009 214.235,310.666 214.347,311.231 214.285 C 312.011 214.199,312.230 214.316,312.142 214.771 C 312.079 215.101,311.863 215.380,311.662 215.391 C 310.516 215.457,308.889 216.041,308.889 216.387 C 308.889 216.609,308.779 216.680,308.645 216.546 C 308.072 215.974,307.407 217.235,307.407 218.895 L 307.407 220.662 308.889 220.286 C 309.704 220.079,310.370 219.754,310.370 219.563 C 310.370 219.372,310.534 219.316,310.733 219.440 C 310.933 219.563,311.453 219.473,311.889 219.239 C 312.325 219.006,312.584 218.973,312.465 219.167 C 311.988 219.938,314.211 221.271,316.019 221.296 C 316.986 221.310,317.778 221.181,317.778 221.009 C 317.778 220.838,317.903 220.764,318.056 220.845 C 318.393 221.025,319.398 219.953,319.567 219.232 C 319.634 218.945,319.884 218.587,320.122 218.435 C 320.361 218.284,320.450 218.157,320.321 218.154 C 320.192 218.151,320.309 216.976,320.582 215.544 C 321.144 212.594,321.004 211.862,319.868 211.828 C 319.431 211.815,318.491 211.721,317.778 211.618 C 317.065 211.516,316.065 211.402,315.556 211.364 C 315.046 211.327,314.544 211.183,314.439 211.046 C 314.051 210.534,308.521 210.335,308.472 210.830 M317.496 215.501 C 317.442 215.749,317.345 216.306,317.279 216.740 C 317.122 217.766,315.705 218.009,315.215 217.093 C 314.561 215.870,315.105 214.916,316.418 214.986 C 317.122 215.024,317.554 215.230,317.496 215.501 M87.478 219.204 C 86.454 219.492,86.487 219.366,86.832 221.667 C 87.231 224.322,87.591 224.868,88.672 224.456 C 89.157 224.272,89.654 224.222,89.777 224.345 C 90.106 224.673,90.052 223.885,89.566 221.246 C 89.127 218.867,89.025 218.768,87.478 219.204 M307.685 226.217 C 307.329 226.291,307.037 226.505,307.037 226.694 C 307.037 226.883,306.791 227.037,306.490 227.037 C 305.773 227.037,304.935 228.351,304.351 230.393 C 303.846 232.161,303.907 234.074,304.469 234.074 C 304.659 234.074,304.815 234.368,304.815 234.726 C 304.815 235.327,306.690 237.205,307.320 237.235 C 307.470 237.243,307.926 237.432,308.333 237.657 C 309.296 238.188,312.182 238.512,312.427 238.117 C 312.531 237.948,312.848 237.899,313.130 238.007 C 314.142 238.396,316.492 236.106,316.883 234.352 C 316.917 234.199,316.986 234.032,317.036 233.981 C 317.319 233.696,317.256 230.370,316.968 230.370 C 316.778 230.370,316.726 230.204,316.851 230.001 C 316.977 229.797,316.820 229.260,316.503 228.807 C 316.186 228.354,315.926 228.135,315.926 228.320 C 315.926 228.506,315.456 228.207,314.882 227.657 C 314.307 227.106,313.740 226.754,313.620 226.874 C 313.500 226.994,312.928 226.846,312.349 226.547 C 311.378 226.045,309.253 225.894,307.685 226.217 M312.160 230.370 C 312.229 230.577,312.420 230.662,312.584 230.561 C 312.748 230.460,313.169 230.983,313.521 231.724 C 314.110 232.966,314.113 233.097,313.554 233.410 C 313.220 233.597,313.033 233.888,313.138 234.057 C 313.427 234.525,310.302 234.282,309.352 233.763 C 308.894 233.512,308.519 233.403,308.519 233.520 C 308.519 233.637,308.288 233.518,308.007 233.255 C 307.367 232.659,307.451 231.066,308.165 230.275 C 308.763 229.611,311.933 229.687,312.160 230.370 M95.619 235.871 C 95.184 236.248,94.932 236.661,95.060 236.788 C 95.187 236.915,95.017 237.125,94.683 237.253 C 94.348 237.382,94.074 237.698,94.074 237.957 C 94.074 238.216,93.824 238.635,93.519 238.889 C 93.105 239.232,92.963 239.238,92.963 238.912 C 92.963 238.672,92.796 238.578,92.593 238.704 C 92.389 238.830,92.222 238.765,92.222 238.560 C 92.222 238.355,91.556 238.214,90.741 238.246 C 89.926 238.279,89.259 238.447,89.259 238.619 C 89.259 238.792,89.093 238.830,88.889 238.704 C 88.685 238.578,88.519 238.661,88.519 238.889 C 88.519 239.117,88.352 239.200,88.148 239.074 C 87.944 238.948,87.778 238.996,87.778 239.181 C 87.778 239.365,87.474 239.866,87.104 240.293 C 86.544 240.939,86.243 243.518,86.673 243.981 C 86.721 244.032,86.794 244.199,86.838 244.352 C 87.045 245.087,88.095 247.691,88.518 248.519 C 88.811 249.092,89.636 249.098,90.926 248.537 C 91.812 248.152,92.708 247.866,92.963 247.888 C 93.065 247.896,93.565 247.674,94.074 247.395 C 94.583 247.116,95.167 246.856,95.370 246.818 C 95.574 246.780,96.848 246.303,98.202 245.758 L 100.663 244.767 100.075 243.271 C 99.397 241.545,98.778 241.169,97.962 241.985 C 97.645 242.302,97.141 242.467,96.841 242.352 C 96.541 242.237,96.296 242.327,96.296 242.553 C 96.296 242.778,96.046 242.963,95.741 242.963 C 94.853 242.963,95.089 242.274,96.478 240.809 C 97.866 239.344,98.050 238.399,97.333 236.415 C 96.818 234.990,96.684 234.947,95.619 235.871 M300.406 242.320 L 299.735 243.889 302.275 245.090 C 304.898 246.330,305.500 246.884,303.889 246.576 C 303.380 246.479,302.963 246.515,302.963 246.658 C 302.963 246.800,301.921 246.886,300.648 246.849 L 298.333 246.783 297.531 248.561 L 296.728 250.340 297.507 250.587 C 298.211 250.810,305.969 254.417,307.462 255.215 C 308.107 255.560,308.896 254.699,309.402 253.099 C 309.651 252.313,307.804 250.961,305.996 250.606 C 305.204 250.451,303.333 249.689,303.333 249.522 C 303.333 249.453,304.958 249.426,306.944 249.463 C 310.891 249.537,311.260 249.394,312.056 247.490 C 312.657 246.053,312.503 245.556,311.460 245.556 C 311.064 245.556,310.741 245.375,310.741 245.154 C 310.741 244.934,310.534 244.822,310.281 244.906 C 310.028 244.991,309.600 244.838,309.329 244.567 C 309.058 244.296,308.515 244.074,308.122 244.074 C 307.729 244.074,307.407 243.907,307.407 243.704 C 307.407 243.500,307.074 243.333,306.667 243.333 C 306.259 243.333,305.926 243.167,305.926 242.963 C 305.926 242.759,305.509 242.593,305.000 242.593 C 304.491 242.593,304.074 242.445,304.074 242.265 C 304.074 242.085,303.782 241.838,303.426 241.716 C 303.069 241.594,302.395 241.327,301.927 241.123 C 301.153 240.785,301.015 240.894,300.406 242.320 M92.063 242.525 C 92.790 244.198,92.589 244.652,91.204 244.472 C 90.949 244.439,90.741 244.619,90.741 244.873 C 90.741 245.178,90.617 245.209,90.372 244.965 C 89.856 244.449,89.651 242.277,90.104 242.126 C 91.068 241.805,91.816 241.957,92.063 242.525 M101.481 250.741 C 100.769 251.131,100.394 251.457,100.648 251.466 C 100.903 251.474,101.069 251.611,101.019 251.770 C 100.968 251.928,101.334 252.829,101.833 253.772 C 102.605 255.232,102.666 255.576,102.243 256.086 C 101.724 256.711,100.224 255.790,100.625 255.093 C 100.713 254.940,100.608 254.815,100.392 254.815 C 100.177 254.815,100.000 254.579,100.000 254.290 C 100.000 253.489,99.202 253.385,97.870 254.014 C 96.641 254.594,96.397 254.975,97.014 255.356 C 98.005 255.969,98.566 257.938,97.890 258.433 C 97.355 258.824,97.202 258.825,97.078 258.439 C 96.995 258.177,96.817 257.880,96.684 257.778 C 96.552 257.676,96.152 256.968,95.797 256.204 C 95.030 254.557,94.847 254.524,93.370 255.767 C 92.341 256.632,92.284 256.791,92.741 257.526 C 93.017 257.970,93.940 259.546,94.791 261.028 L 96.340 263.722 98.250 262.694 C 99.300 262.129,100.385 261.459,100.661 261.204 C 100.937 260.950,101.568 260.640,102.063 260.516 C 102.558 260.392,102.963 260.152,102.963 259.984 C 102.963 259.815,103.546 259.467,104.259 259.209 C 104.972 258.951,105.556 258.618,105.556 258.469 C 105.556 258.320,105.889 258.092,106.296 257.963 C 107.346 257.630,107.228 256.971,105.648 254.341 C 104.884 253.069,104.023 251.572,103.734 251.014 C 103.117 249.823,103.150 249.827,101.481 250.741 M292.097 258.123 C 290.869 259.980,290.845 259.820,292.500 260.873 C 293.264 261.359,295.008 262.476,296.376 263.355 L 298.863 264.955 298.109 266.174 C 297.268 267.535,297.338 267.785,298.868 268.874 L 299.936 269.635 300.763 268.243 C 301.641 266.765,303.763 263.429,304.864 261.793 C 305.442 260.935,305.458 260.751,304.986 260.359 C 304.688 260.112,304.444 260.013,304.444 260.140 C 304.444 260.267,304.087 260.013,303.650 259.576 L 302.855 258.781 302.299 259.841 C 301.507 261.353,300.656 262.154,300.462 261.571 C 300.378 261.318,300.073 261.111,299.784 261.111 C 299.495 261.111,299.259 260.935,299.259 260.719 C 299.259 260.503,299.091 260.430,298.886 260.557 C 298.681 260.684,298.414 260.528,298.292 260.211 C 298.170 259.893,297.921 259.726,297.739 259.839 C 297.557 259.952,297.407 259.867,297.407 259.651 C 297.407 259.436,297.157 259.259,296.852 259.259 C 296.546 259.259,296.296 259.093,296.296 258.889 C 296.296 258.685,296.046 258.519,295.741 258.519 C 295.435 258.519,295.185 258.342,295.185 258.126 C 295.185 257.911,295.029 257.831,294.838 257.949 C 294.646 258.067,294.318 257.869,294.108 257.508 C 293.898 257.147,293.719 257.019,293.709 257.222 C 293.700 257.426,293.555 257.377,293.388 257.113 C 293.169 256.767,292.808 257.050,292.097 258.123 M103.860 265.729 C 101.393 266.969,100.494 270.895,102.331 272.407 C 102.579 272.611,103.425 273.724,104.212 274.881 L 105.642 276.984 106.542 276.085 C 107.036 275.590,107.575 275.185,107.738 275.185 C 107.901 275.185,108.378 274.894,108.798 274.537 C 109.217 274.181,109.925 273.639,110.370 273.333 C 110.816 273.028,111.482 272.528,111.852 272.222 C 112.221 271.917,112.892 271.417,113.342 271.111 C 113.792 270.806,114.556 270.253,115.040 269.883 L 115.921 269.209 114.750 267.753 C 113.723 266.475,112.529 265.666,113.148 266.667 C 113.274 266.870,113.117 267.037,112.800 267.037 C 112.482 267.037,112.222 267.231,112.222 267.469 C 112.222 267.707,112.119 267.798,111.993 267.672 C 111.867 267.546,111.509 267.698,111.197 268.010 C 110.688 268.519,110.539 268.479,109.741 267.618 C 107.819 265.545,105.627 264.841,103.860 265.729 M284.765 268.439 C 283.193 270.207,280.957 272.969,280.826 273.306 C 280.771 273.446,281.164 273.968,281.699 274.466 L 282.671 275.370 284.397 273.452 C 286.115 271.543,286.128 271.537,286.998 272.193 L 287.873 272.853 286.564 273.851 C 285.085 274.979,285.036 275.510,286.288 276.843 C 287.290 277.910,287.937 277.595,289.311 275.370 C 289.688 274.759,289.998 274.477,289.999 274.744 C 289.999 275.011,290.155 275.133,290.345 275.016 C 291.692 274.183,290.762 276.159,288.787 278.327 C 288.193 278.978,288.182 279.108,288.683 279.475 C 288.993 279.702,289.139 279.997,289.007 280.129 C 288.874 280.262,289.025 280.370,289.343 280.370 C 289.661 280.370,290.021 280.631,290.143 280.951 C 290.307 281.376,290.953 280.801,292.571 278.790 C 293.784 277.282,295.035 275.834,295.351 275.572 C 295.951 275.074,296.165 274.253,295.605 274.599 C 295.428 274.709,294.903 274.302,294.438 273.695 C 293.973 273.089,293.428 272.593,293.226 272.593 C 293.024 272.593,292.674 272.351,292.448 272.056 C 291.919 271.365,286.580 267.037,286.257 267.037 C 286.122 267.037,285.451 267.668,284.765 268.439 M107.552 269.596 C 107.856 269.848,108.010 270.299,107.895 270.599 C 107.780 270.898,107.599 271.056,107.492 270.949 C 107.385 270.842,107.010 271.086,106.659 271.490 C 105.896 272.370,105.325 271.905,104.967 270.115 C 104.722 268.890,106.316 268.570,107.552 269.596 M117.924 275.535 C 117.832 275.626,117.517 275.736,117.225 275.778 C 115.703 276.002,112.664 279.217,113.182 280.055 C 113.359 280.341,113.285 280.384,112.962 280.184 C 112.600 279.961,112.529 280.088,112.685 280.683 C 112.800 281.123,112.765 281.403,112.608 281.306 C 112.153 281.024,112.429 283.817,112.953 284.797 C 113.537 285.887,115.025 287.407,115.508 287.407 C 115.704 287.407,115.934 287.616,116.019 287.870 C 116.116 288.164,116.897 288.333,118.148 288.333 C 119.399 288.333,120.180 288.164,120.278 287.870 C 120.363 287.616,120.823 287.407,121.300 287.407 C 122.267 287.407,124.444 285.062,124.444 284.021 C 124.444 283.677,124.622 283.336,124.839 283.264 C 125.456 283.058,125.582 279.904,124.999 279.259 C 124.723 278.954,124.518 278.537,124.543 278.333 C 124.714 276.943,118.962 274.512,117.924 275.535 M275.647 278.399 C 274.506 279.306,274.476 279.388,275.092 279.970 C 277.149 281.918,278.540 283.647,278.212 283.850 C 278.006 283.977,277.575 283.819,277.255 283.498 C 276.935 283.178,276.504 283.020,276.299 283.146 C 276.094 283.273,275.926 283.191,275.926 282.963 C 275.926 282.735,275.759 282.652,275.556 282.778 C 275.352 282.904,275.185 282.820,275.185 282.593 C 275.185 282.365,275.000 282.293,274.773 282.433 C 274.547 282.573,274.233 282.479,274.075 282.223 C 273.474 281.251,271.965 281.514,270.707 282.813 L 269.488 284.071 270.418 285.091 C 270.930 285.652,272.113 286.944,273.047 287.963 C 273.982 288.981,275.390 290.523,276.178 291.389 C 277.858 293.237,278.160 293.288,279.643 291.967 L 280.761 290.970 278.828 289.013 C 276.899 287.060,276.659 286.207,278.239 286.927 C 278.698 287.136,279.222 287.315,279.403 287.326 C 279.584 287.336,279.841 287.521,279.975 287.737 C 280.108 287.953,280.543 288.192,280.942 288.268 C 281.341 288.345,281.974 288.539,282.349 288.701 C 282.861 288.921,283.353 288.671,284.328 287.697 L 285.625 286.400 284.656 285.430 C 284.123 284.897,283.649 284.332,283.603 284.175 C 283.556 284.018,283.394 283.931,283.241 283.981 C 283.088 284.032,282.963 283.902,282.963 283.691 C 282.963 283.481,282.421 282.762,281.759 282.094 C 281.097 281.426,280.224 280.432,279.820 279.884 C 279.415 279.337,278.884 278.889,278.641 278.889 C 278.397 278.889,278.092 278.556,277.963 278.148 C 277.655 277.177,277.112 277.236,275.647 278.399 M121.302 279.418 C 121.795 279.837,121.648 282.352,121.120 282.528 C 120.911 282.597,120.741 282.890,120.741 283.179 C 120.741 283.468,120.505 283.704,120.216 283.704 C 119.927 283.704,119.636 283.860,119.568 284.051 C 118.993 285.669,115.820 284.255,116.296 282.593 C 116.463 282.013,116.532 281.470,116.449 281.387 C 115.575 280.513,120.323 278.586,121.302 279.418 M130.393 285.164 C 129.265 285.877,129.572 287.171,131.133 288.275 C 132.670 289.363,132.857 290.498,131.618 291.222 C 131.339 291.385,131.111 291.760,131.111 292.055 C 131.111 292.351,130.967 292.593,130.791 292.593 C 130.615 292.593,129.990 293.301,129.402 294.167 C 128.814 295.032,128.049 296.056,127.701 296.442 C 127.095 297.113,127.136 297.198,128.626 298.379 C 129.621 299.166,130.240 299.451,130.337 299.165 C 130.421 298.919,130.671 298.526,130.893 298.293 C 131.115 298.059,131.546 297.494,131.852 297.037 C 132.157 296.580,132.574 296.018,132.778 295.788 C 133.750 294.692,135.185 292.604,135.185 292.287 C 135.185 292.091,135.435 291.835,135.741 291.718 C 136.046 291.601,136.296 291.267,136.296 290.977 C 136.296 290.687,136.546 290.354,136.852 290.236 C 137.917 289.828,137.364 289.060,134.479 286.944 C 131.424 284.703,131.244 284.625,130.393 285.164 M262.597 289.096 C 261.276 290.001,260.079 291.033,259.938 291.389 C 259.797 291.745,259.664 291.870,259.643 291.667 C 259.621 291.463,259.372 291.713,259.089 292.222 C 258.520 293.248,258.585 296.409,259.190 297.139 C 259.397 297.388,259.574 297.722,259.583 297.880 C 259.623 298.612,260.979 300.396,261.654 300.606 C 262.068 300.735,262.494 300.974,262.599 301.137 C 262.844 301.514,265.776 301.878,266.085 301.569 C 266.213 301.441,266.577 301.298,266.895 301.252 C 267.413 301.176,270.278 299.396,270.741 298.863 C 270.843 298.746,271.236 298.535,271.615 298.395 C 272.261 298.156,271.225 296.125,269.979 295.185 C 269.844 295.083,269.455 294.458,269.116 293.796 C 268.777 293.134,268.327 292.593,268.117 292.593 C 267.906 292.593,267.833 292.432,267.955 292.236 C 268.076 292.039,267.836 291.539,267.421 291.125 C 267.006 290.710,266.782 290.370,266.923 290.370 C 267.063 290.370,266.855 290.126,266.460 289.827 C 266.064 289.528,265.903 289.278,266.101 289.271 C 266.299 289.265,266.088 288.998,265.632 288.678 C 265.176 288.359,264.898 287.942,265.016 287.752 C 265.333 287.239,265.207 287.309,262.597 289.096 M264.849 293.704 C 265.058 293.704,265.125 293.872,264.998 294.077 C 264.872 294.282,265.027 294.549,265.345 294.671 C 265.662 294.793,265.829 295.043,265.715 295.227 C 265.602 295.410,265.768 295.660,266.086 295.782 C 266.403 295.904,266.577 296.143,266.472 296.312 C 266.367 296.482,266.563 296.779,266.908 296.972 C 267.449 297.275,267.375 297.405,266.360 297.930 C 265.705 298.269,265.185 298.369,265.185 298.158 C 265.185 297.949,265.020 297.778,264.819 297.778 C 264.255 297.778,262.963 296.560,262.963 296.029 C 262.963 295.769,262.813 295.556,262.629 295.556 C 262.312 295.556,262.312 294.154,262.630 292.963 C 262.901 291.947,263.508 291.871,263.991 292.793 C 264.253 293.294,264.639 293.704,264.849 293.704 M141.210 293.434 C 140.428 294.760,140.523 294.971,142.309 295.893 C 142.865 296.180,143.639 296.711,144.028 297.074 C 144.418 297.437,144.865 297.618,145.023 297.478 C 145.181 297.337,144.990 297.665,144.599 298.206 C 144.209 298.748,143.833 299.038,143.765 298.852 C 143.696 298.666,143.487 298.609,143.299 298.725 C 143.111 298.841,142.858 298.676,142.736 298.359 C 142.615 298.042,142.366 297.874,142.183 297.987 C 142.001 298.100,141.852 298.006,141.852 297.778 C 141.852 297.550,141.699 297.458,141.513 297.573 C 141.327 297.688,141.109 297.587,141.030 297.348 C 140.838 296.775,139.259 298.464,139.259 299.242 C 139.259 299.563,139.907 300.226,140.699 300.715 C 141.567 301.251,142.093 301.838,142.024 302.191 C 141.960 302.514,141.893 302.944,141.875 303.148 C 141.854 303.374,141.734 303.362,141.568 303.119 C 141.143 302.494,137.476 300.549,137.215 300.810 C 137.087 300.938,136.948 301.267,136.906 301.540 C 136.865 301.813,136.710 302.230,136.562 302.467 C 136.278 302.921,136.581 304.074,136.984 304.074 C 137.115 304.074,138.572 304.878,140.222 305.859 L 143.221 307.643 144.058 306.065 C 144.518 305.197,144.909 304.352,144.927 304.188 C 144.957 303.908,145.180 303.591,146.127 302.487 C 146.339 302.240,146.734 301.495,147.005 300.833 C 147.276 300.171,147.644 299.630,147.823 299.630 C 148.002 299.630,148.148 299.402,148.148 299.124 C 148.148 298.846,148.479 298.198,148.884 297.683 C 149.736 296.600,149.756 296.623,146.481 294.819 C 145.259 294.146,143.736 293.284,143.095 292.903 L 141.932 292.211 141.210 293.434 M242.130 300.447 C 240.438 301.175,239.814 302.205,240.725 302.768 C 240.919 302.888,240.986 303.229,240.872 303.526 C 240.758 303.822,240.851 304.598,241.078 305.250 C 241.357 306.050,241.369 306.557,241.116 306.810 C 240.863 307.063,240.726 307.041,240.694 306.741 C 240.669 306.496,240.627 306.124,240.602 305.912 C 240.576 305.701,240.354 305.404,240.107 305.251 C 239.860 305.099,239.393 304.339,239.069 303.563 C 238.425 302.022,238.191 301.993,235.488 303.123 C 234.181 303.669,233.723 305.570,234.569 306.939 C 234.758 307.245,235.174 310.065,235.280 311.759 C 235.296 312.014,235.433 312.222,235.585 312.222 C 235.736 312.222,235.813 312.514,235.756 312.870 C 235.698 313.227,235.815 313.725,236.015 313.977 C 236.215 314.229,236.286 314.679,236.171 314.976 C 235.865 315.776,237.190 316.053,238.702 315.506 C 240.193 314.966,240.213 314.914,239.380 313.725 C 239.040 313.238,238.956 312.961,239.195 313.109 C 239.434 313.256,239.630 313.201,239.630 312.985 C 239.630 312.769,239.491 312.593,239.321 312.593 C 239.151 312.593,238.986 312.384,238.954 312.130 C 238.777 310.720,238.643 310.131,238.418 309.767 C 238.155 309.341,238.429 308.889,238.951 308.889 C 239.120 308.889,239.259 309.139,239.259 309.444 C 239.259 309.750,239.426 310.000,239.630 310.000 C 239.833 310.000,240.000 310.260,240.000 310.577 C 240.000 310.895,240.165 311.053,240.366 310.929 C 240.584 310.794,240.633 310.960,240.488 311.338 C 240.310 311.803,240.376 311.892,240.735 311.670 C 241.027 311.489,241.136 311.512,241.004 311.725 C 240.883 311.922,241.065 312.509,241.410 313.028 C 242.109 314.082,245.961 313.548,245.306 312.489 C 245.155 312.244,244.985 311.479,244.928 310.789 C 244.872 310.098,244.615 309.273,244.357 308.955 C 243.971 308.477,243.980 308.431,244.409 308.690 C 244.794 308.922,244.847 308.870,244.612 308.490 C 244.437 308.207,244.258 307.723,244.215 307.414 C 244.171 307.105,244.018 306.477,243.876 306.019 C 243.709 305.480,243.771 305.185,244.053 305.185 C 244.292 305.185,244.377 305.365,244.242 305.584 C 244.106 305.803,244.350 306.313,244.784 306.717 C 245.217 307.121,245.475 307.608,245.357 307.800 C 245.238 307.991,245.318 308.148,245.534 308.148 C 245.749 308.148,245.889 308.273,245.844 308.426 C 245.751 308.739,247.027 310.800,247.539 311.162 C 247.722 311.292,247.767 311.569,247.639 311.777 C 247.510 311.985,248.313 311.798,249.422 311.361 C 251.166 310.675,251.373 310.491,250.952 310.006 C 250.684 309.697,250.175 308.819,249.820 308.056 C 249.465 307.292,249.017 306.667,248.825 306.667 C 248.632 306.667,248.579 306.499,248.705 306.294 C 248.832 306.089,248.676 305.821,248.359 305.699 C 248.042 305.578,247.859 305.354,247.952 305.202 C 248.046 305.051,247.830 304.610,247.473 304.223 C 247.116 303.835,246.602 302.977,246.330 302.315 C 246.058 301.653,245.680 301.111,245.489 301.111 C 245.298 301.111,245.239 300.953,245.359 300.759 C 245.537 300.471,244.411 299.556,244.006 299.660 C 243.942 299.676,243.097 300.030,242.130 300.447 M156.019 300.245 C 155.764 300.348,155.556 300.650,155.556 300.917 C 155.556 301.184,155.306 301.498,155.000 301.615 C 154.694 301.733,154.444 302.065,154.444 302.353 C 154.444 302.642,154.028 303.151,153.519 303.484 C 153.009 303.818,152.593 304.248,152.593 304.440 C 152.593 304.632,152.134 305.286,151.574 305.893 C 150.035 307.560,149.435 308.304,149.537 308.417 C 149.588 308.473,149.553 308.477,149.460 308.426 C 149.367 308.375,149.048 308.666,148.750 309.073 C 148.189 309.841,148.536 310.738,149.397 310.743 C 149.627 310.744,150.261 310.978,150.807 311.263 C 151.894 311.830,152.222 311.700,152.222 310.704 C 152.222 310.344,152.558 309.943,152.968 309.813 C 153.379 309.683,153.618 309.420,153.500 309.230 C 153.383 309.040,153.547 308.784,153.865 308.661 C 154.184 308.539,154.444 308.207,154.444 307.923 C 154.444 307.640,154.621 307.407,154.837 307.407 C 155.052 307.407,155.126 307.241,155.000 307.037 C 154.874 306.833,154.947 306.667,155.162 306.667 C 155.377 306.667,155.796 306.125,156.093 305.463 L 156.632 304.259 156.458 306.296 C 156.233 308.926,156.065 310.054,155.795 310.741 C 155.028 312.695,155.206 313.222,156.793 313.693 C 157.640 313.945,158.535 314.315,158.781 314.516 C 159.111 314.784,159.190 314.676,159.080 314.107 C 158.998 313.682,159.061 313.333,159.220 313.333 C 159.379 313.333,159.469 312.500,159.420 311.481 C 159.371 310.463,159.467 309.630,159.632 309.630 C 159.798 309.630,159.945 308.921,159.960 308.056 C 159.994 306.082,160.246 303.394,160.494 302.355 C 160.649 301.705,157.229 299.692,156.541 300.029 C 156.508 300.045,156.273 300.143,156.019 300.245 M167.641 304.379 C 166.471 306.378,168.233 308.148,171.395 308.148 C 171.591 308.148,171.732 308.520,171.709 308.974 C 171.664 309.845,169.880 310.335,169.427 309.601 C 169.306 309.406,169.046 309.348,168.847 309.470 C 168.649 309.593,168.243 309.492,167.947 309.246 C 167.502 308.877,167.407 308.941,167.407 309.609 C 167.407 310.054,167.244 310.724,167.045 311.097 C 166.573 311.979,167.137 312.434,169.105 312.758 C 170.407 312.973,171.396 314.074,170.287 314.074 C 170.105 314.074,170.075 314.266,170.221 314.502 C 170.397 314.788,170.321 314.828,169.988 314.622 C 169.250 314.166,165.563 313.361,165.508 313.645 C 165.482 313.779,165.417 314.222,165.364 314.630 C 165.310 315.037,165.151 315.652,165.010 315.996 C 164.803 316.500,165.029 316.668,166.173 316.862 C 166.954 316.995,168.259 317.338,169.074 317.625 C 172.643 318.883,173.769 318.254,173.744 315.017 C 173.741 314.619,173.903 314.096,174.103 313.854 C 174.304 313.612,174.504 312.896,174.549 312.263 C 174.593 311.630,174.736 311.112,174.865 311.112 C 175.122 311.111,175.574 309.141,175.584 307.980 C 175.587 307.582,175.769 307.040,175.989 306.776 C 176.208 306.512,176.242 306.293,176.064 306.288 C 175.886 306.283,173.951 305.795,171.764 305.204 C 169.578 304.612,167.722 304.241,167.641 304.379 M222.963 306.429 L 219.444 307.249 219.550 308.347 C 219.740 310.315,219.761 310.326,222.211 309.760 C 224.546 309.221,225.171 309.294,225.049 310.094 C 224.908 311.022,224.366 311.506,223.704 311.296 C 223.331 311.178,222.911 311.266,222.771 311.492 C 222.632 311.718,222.285 311.813,222.000 311.704 C 221.377 311.465,221.312 312.470,221.857 313.904 C 222.180 314.753,222.376 314.855,223.246 314.630 C 225.685 313.997,226.138 314.023,226.138 314.793 C 226.138 315.541,225.987 315.603,222.870 316.140 C 221.679 316.345,220.858 317.037,221.806 317.037 C 221.984 317.037,222.130 317.466,222.130 317.991 C 222.130 319.768,222.003 319.769,229.881 317.962 C 230.608 317.795,230.652 317.656,230.320 316.574 C 230.117 315.912,229.871 314.870,229.773 314.259 C 229.675 313.648,229.497 312.898,229.377 312.593 C 229.152 312.017,228.674 309.793,228.223 307.222 C 227.901 305.386,227.621 305.344,222.963 306.429 M184.352 308.398 C 183.995 308.494,183.704 308.727,183.704 308.916 C 183.704 309.105,183.494 309.259,183.237 309.259 C 182.835 309.259,181.730 310.569,181.674 311.111 C 181.664 311.213,181.523 311.505,181.361 311.759 C 181.200 312.014,181.170 312.389,181.296 312.593 C 181.422 312.796,181.350 312.963,181.135 312.963 C 180.820 312.963,180.818 316.899,181.134 317.315 C 181.172 317.366,181.225 317.564,181.250 317.755 C 181.346 318.473,183.869 320.367,184.968 320.545 C 185.597 320.647,186.985 320.877,188.053 321.055 C 190.319 321.434,190.798 321.105,190.573 319.325 C 190.491 318.678,190.543 318.148,190.687 318.148 C 190.832 318.148,191.005 317.273,191.073 316.204 C 191.241 313.528,191.388 312.037,191.483 312.037 C 191.740 312.037,191.747 308.868,191.490 308.709 C 191.057 308.442,185.144 308.184,184.352 308.398 M211.460 308.293 C 211.361 308.393,210.306 308.513,209.116 308.561 C 206.736 308.657,204.591 309.769,204.681 310.860 C 204.709 311.202,204.612 311.481,204.465 311.481 C 204.318 311.481,204.239 311.856,204.290 312.315 C 204.341 312.773,204.397 313.364,204.414 313.628 C 204.431 313.892,204.854 314.517,205.354 315.017 C 205.854 315.517,206.084 315.926,205.866 315.926 C 205.648 315.926,205.556 316.259,205.663 316.666 C 205.769 317.074,205.704 317.501,205.518 317.616 C 204.483 318.255,205.961 320.590,207.721 321.095 C 208.563 321.336,213.126 321.128,213.896 320.813 C 213.994 320.773,214.332 320.741,214.646 320.741 C 215.107 320.741,215.176 320.433,215.002 319.167 C 214.883 318.301,214.715 316.593,214.628 315.370 C 214.160 308.742,214.058 308.357,212.731 308.223 C 212.131 308.163,211.559 308.194,211.460 308.293 M187.932 311.719 C 188.049 312.025,187.974 312.597,187.763 312.990 C 187.488 313.504,187.501 313.704,187.810 313.704 C 188.090 313.704,188.119 313.865,187.895 314.167 C 187.706 314.421,187.568 315.077,187.589 315.623 C 187.609 316.170,187.483 316.528,187.307 316.419 C 187.131 316.311,187.040 316.511,187.105 316.865 C 187.272 317.784,186.138 317.845,185.198 316.969 C 184.399 316.225,184.374 315.675,185.023 313.148 C 185.464 311.429,187.447 310.454,187.932 311.719 M210.675 312.194 C 210.963 313.020,210.938 313.321,210.566 313.463 C 209.109 314.022,207.618 312.752,208.493 311.698 C 209.267 310.765,210.256 310.990,210.675 312.194 M211.339 317.121 C 211.272 318.436,209.259 318.570,209.259 317.258 C 209.259 316.606,209.417 316.380,209.777 316.518 C 210.062 316.628,210.407 316.536,210.544 316.316 C 210.922 315.704,211.386 316.174,211.339 317.121 " stroke="none" fill="#0c0c0c" fill-rule="evenodd"></path><path id="path1" d="M309.222 200.481 C 309.394 200.654,310.098 200.737,310.786 200.666 C 312.006 200.540,311.999 200.533,310.473 200.352 C 309.612 200.251,309.049 200.309,309.222 200.481 M316.339 201.204 C 316.370 201.794,316.430 201.855,316.547 201.412 C 316.638 201.068,317.077 200.715,317.523 200.629 C 318.190 200.499,318.153 200.462,317.315 200.421 C 316.479 200.379,316.304 200.520,316.339 201.204 M318.234 202.963 C 318.234 203.676,318.310 203.968,318.403 203.611 C 318.497 203.255,318.497 202.671,318.403 202.315 C 318.310 201.958,318.234 202.250,318.234 202.963 M118.375 275.489 C 118.272 275.655,118.678 275.720,119.279 275.632 C 119.879 275.544,120.370 275.407,120.370 275.328 C 120.370 275.046,118.558 275.192,118.375 275.489 " stroke="none" fill="#100c0c" fill-rule="evenodd"></path><path id="path2" d="M309.222 200.481 C 309.394 200.654,310.098 200.737,310.786 200.666 C 312.006 200.540,311.999 200.533,310.473 200.352 C 309.612 200.251,309.049 200.309,309.222 200.481 M316.339 201.204 C 316.370 201.794,316.430 201.855,316.547 201.412 C 316.638 201.068,317.077 200.715,317.523 200.629 C 318.190 200.499,318.153 200.462,317.315 200.421 C 316.479 200.379,316.304 200.520,316.339 201.204 M318.234 202.963 C 318.234 203.676,318.310 203.968,318.403 203.611 C 318.497 203.255,318.497 202.671,318.403 202.315 C 318.310 201.958,318.234 202.250,318.234 202.963 M118.375 275.489 C 118.272 275.655,118.678 275.720,119.279 275.632 C 119.879 275.544,120.370 275.407,120.370 275.328 C 120.370 275.046,118.558 275.192,118.375 275.489 " stroke="none" fill="#100c0c" fill-rule="evenodd"></path><path id="path3" d="M309.222 200.481 C 309.394 200.654,310.098 200.737,310.786 200.666 C 312.006 200.540,311.999 200.533,310.473 200.352 C 309.612 200.251,309.049 200.309,309.222 200.481 M316.339 201.204 C 316.370 201.794,316.430 201.855,316.547 201.412 C 316.638 201.068,317.077 200.715,317.523 200.629 C 318.190 200.499,318.153 200.462,317.315 200.421 C 316.479 200.379,316.304 200.520,316.339 201.204 M318.234 202.963 C 318.234 203.676,318.310 203.968,318.403 203.611 C 318.497 203.255,318.497 202.671,318.403 202.315 C 318.310 201.958,318.234 202.250,318.234 202.963 M118.375 275.489 C 118.272 275.655,118.678 275.720,119.279 275.632 C 119.879 275.544,120.370 275.407,120.370 275.328 C 120.370 275.046,118.558 275.192,118.375 275.489 " stroke="none" fill="#100c0c" fill-rule="evenodd"></path><path id="path4" d="M309.222 200.481 C 309.394 200.654,310.098 200.737,310.786 200.666 C 312.006 200.540,311.999 200.533,310.473 200.352 C 309.612 200.251,309.049 200.309,309.222 200.481 M316.339 201.204 C 316.370 201.794,316.430 201.855,316.547 201.412 C 316.638 201.068,317.077 200.715,317.523 200.629 C 318.190 200.499,318.153 200.462,317.315 200.421 C 316.479 200.379,316.304 200.520,316.339 201.204 M318.234 202.963 C 318.234 203.676,318.310 203.968,318.403 203.611 C 318.497 203.255,318.497 202.671,318.403 202.315 C 318.310 201.958,318.234 202.250,318.234 202.963 M118.375 275.489 C 118.272 275.655,118.678 275.720,119.279 275.632 C 119.879 275.544,120.370 275.407,120.370 275.328 C 120.370 275.046,118.558 275.192,118.375 275.489 " stroke="none" fill="#100c0c" fill-rule="evenodd"></path></g></svg>