<svg version="1.1" id="Layer_1" xmlns="http://www.w3.org/2000/svg" xmlns:xlink="http://www.w3.org/1999/xlink" x="0px" y="0px"
	 width="100%" viewBox="0 0 1080 1080" enable-background="new 0 0 1080 1080" xml:space="preserve">
<path fill="#000000" opacity="1.000000" stroke="none" 
	d="
M603.000000,1081.000000 
	C402.023132,1081.000000 201.546280,1081.000000 1.034705,1081.000000 
	C1.034705,721.064697 1.034705,361.129364 1.034705,1.097018 
	C360.893768,1.097018 720.787598,1.097018 1080.840698,1.097018 
	C1080.840698,360.999939 1080.840698,720.999939 1080.840698,1081.000000 
	C921.795593,1081.000000 762.647766,1081.000000 603.000000,1081.000000 
M339.696320,307.199005 
	C343.360809,308.765747 347.114075,310.156219 350.667023,311.944550 
	C354.962128,314.106415 358.116760,311.918915 359.952271,308.815430 
	C360.815918,307.355133 359.584961,303.814972 358.228851,302.036560 
	C353.703430,296.102081 348.613861,290.601654 343.903595,284.802429 
	C341.869507,282.298035 339.928162,281.466095 337.201782,283.651672 
	C334.509125,285.810181 334.022369,287.998352 336.341553,290.855042 
	C338.419250,293.414337 340.137787,296.265228 342.002045,298.998474 
	C342.002045,298.998474 341.995544,299.009216 341.294922,298.799225 
	C337.278534,297.196320 333.260986,295.596405 329.246155,293.989532 
	C325.702362,292.571167 323.360840,294.664398 321.658081,297.140686 
	C320.887543,298.261261 320.752869,300.857544 321.527557,301.835785 
	C327.098602,308.870789 332.954956,315.681213 338.769043,322.521851 
	C341.196899,325.378387 343.602356,323.543365 345.039429,321.680359 
	C345.992950,320.444244 346.271973,317.709625 345.542572,316.347504 
	C343.760712,313.020020 341.217651,310.100220 338.996460,307.002533 
	C338.996460,307.002533 339.005829,306.988159 339.696320,307.199005 
M751.278992,766.821594 
	C747.249573,765.316162 743.251282,763.719604 739.181763,762.331726 
	C735.339905,761.021423 732.362793,763.080933 730.978882,766.129883 
	C730.300293,767.625061 731.605347,770.690796 732.922607,772.301514 
	C737.737549,778.189148 742.918335,783.778992 747.996826,789.449219 
	C750.068542,791.762268 752.228210,793.190735 755.107178,790.354065 
	C757.788025,787.712769 757.744873,785.386902 755.191162,782.663513 
	C752.950684,780.274231 751.037659,777.578064 748.996033,775.002869 
	C748.996033,775.002869 749.006042,774.987244 749.722839,775.181885 
	C753.931763,776.734009 758.045105,778.936584 762.388367,779.574829 
	C764.700256,779.914612 767.649597,777.864563 769.811890,776.231873 
	C770.582703,775.649963 770.561401,772.548279 769.741089,771.567261 
	C764.204163,764.945862 758.351013,758.589233 752.610291,752.138000 
	C750.326355,749.571350 748.055908,749.954834 745.701294,752.051270 
	C743.190979,754.286377 743.291077,756.469666 745.461609,758.931213 
	C747.749329,761.525513 749.840393,764.293152 752.002930,766.997925 
	C752.002930,766.997925 751.994385,767.010681 751.278992,766.821594 
M663.596985,832.102783 
	C664.989868,834.749939 666.193665,837.520386 667.820618,840.014893 
	C670.175598,843.625549 673.297668,842.333923 676.153687,840.701843 
	C679.125427,839.003479 677.755554,836.845459 676.491821,834.767700 
	C672.428833,828.087830 668.220520,821.488708 664.394653,814.675110 
	C662.179077,810.729431 659.471985,810.523132 655.646667,811.919128 
	C651.709900,813.355957 649.954407,815.530151 651.017883,819.824219 
	C651.564880,822.032776 651.525940,824.386414 651.751709,826.674500 
	C649.106201,824.500854 647.701660,822.080750 646.078735,819.817200 
	C643.202576,815.805664 639.878906,818.221741 636.685669,819.347107 
	C633.815063,820.358826 632.336182,822.078796 633.084961,825.406616 
	C634.947205,833.682678 636.539673,842.019897 638.436218,850.287659 
	C639.344543,854.247620 641.879150,855.308228 644.914185,852.643311 
	C646.407166,851.332520 647.291382,848.408813 647.120972,846.323792 
	C646.812317,842.549438 645.507019,838.856567 644.617859,835.129639 
	C647.931213,837.965210 650.174255,841.214905 652.332642,844.519958 
	C653.995972,847.066833 655.717041,849.028381 659.224487,847.442688 
	C662.448730,845.984924 662.961548,843.581116 662.404297,840.471313 
	C661.687744,836.472778 661.102661,832.450684 660.460999,828.438721 
	C660.751587,828.358032 661.042114,828.277344 661.332703,828.196655 
	C661.981323,829.301086 662.629944,830.405579 663.596985,832.102783 
M426.317444,259.149567 
	C427.258698,260.720032 428.338898,262.225311 429.112610,263.874390 
	C430.776703,267.421204 433.294800,267.624573 436.532623,266.219879 
	C439.789703,264.806854 443.319763,263.860260 442.108032,258.939392 
	C441.505371,256.491943 441.426453,253.915558 441.110565,251.397507 
	C443.757324,253.375717 445.315857,255.639648 446.671875,258.018982 
	C449.136597,262.343628 452.463898,260.603790 455.818207,259.557465 
	C459.305115,258.469757 460.502197,256.308380 459.850677,252.729858 
	C458.449677,245.035370 457.244446,237.305450 455.906891,229.599091 
	C455.429291,226.847397 454.764557,224.141037 450.919800,225.001648 
	C447.389618,225.791840 445.843475,227.861954 446.642731,231.547623 
	C447.584808,235.892181 448.423126,240.259232 449.306396,244.616516 
	C446.495575,241.260193 444.288605,237.622314 442.000427,234.036255 
	C440.368958,231.479416 438.842224,228.792938 434.916595,230.497986 
	C431.197693,232.113251 430.953186,234.941940 431.511078,238.349960 
	C432.063324,241.723709 432.406616,245.131668 432.841522,248.524643 
	C432.457703,248.645782 432.073883,248.766937 431.690063,248.888092 
	C429.797760,245.119904 427.905334,241.351761 426.013123,237.583527 
	C424.070801,233.715515 421.161346,235.009842 418.331512,236.194000 
	C414.976807,237.597809 415.723999,239.869019 417.084320,242.310501 
	C420.081451,247.689774 423.024902,253.098953 426.317444,259.149567 
M519.965332,213.221802 
	C514.782471,213.454483 512.624146,216.155670 512.976440,221.312027 
	C513.473572,228.587967 513.741638,235.879700 514.093201,243.165359 
	C514.252197,246.459076 516.115540,248.095795 519.246399,247.878799 
	C524.196228,247.535706 529.230469,247.344986 534.035767,246.245407 
	C540.373779,244.795074 543.094116,237.337112 539.320618,231.967194 
	C537.566284,229.470718 537.341125,227.532852 538.233398,224.708527 
	C539.939087,219.309937 537.290100,215.063187 531.713989,214.068329 
	C528.148926,213.432297 524.470947,213.429352 519.965332,213.221802 
M553.934082,840.413208 
	C551.813477,843.714661 553.111755,846.628418 554.557983,849.810425 
	C555.546387,851.985107 556.159241,854.740845 555.779236,857.045410 
	C554.859192,862.625427 556.667725,866.431396 562.350220,867.310486 
	C566.903748,868.014893 571.636658,867.839905 576.272766,867.645447 
	C580.296204,867.476685 582.136292,865.271729 581.539001,860.964722 
	C580.830872,855.859070 580.498718,850.697266 580.116821,845.551331 
	C579.207214,833.292542 579.238037,833.375061 566.881042,833.944702 
	C561.798340,834.178955 557.333679,835.343811 553.934082,840.413208 
M804.043579,673.296143 
	C802.994690,676.482727 804.933167,677.832642 807.419250,678.966553 
	C814.391296,682.146423 821.354553,685.346985 828.279785,688.626892 
	C831.362427,690.086853 833.910645,690.559021 835.629944,686.674927 
	C837.320312,682.856140 835.321655,681.128723 832.253967,679.732300 
	C829.859985,678.642456 827.511719,677.452271 825.143127,676.306641 
	C829.521973,674.954590 833.478821,674.586304 837.441406,674.296997 
	C841.602112,673.993164 843.416016,670.910889 843.631226,667.623657 
	C843.734619,666.045776 841.279541,663.664978 839.433533,662.708435 
	C832.635254,659.185669 825.584961,656.152649 818.675903,652.838684 
	C815.744019,651.432373 813.658875,651.715088 812.227600,654.947510 
	C810.845825,658.067993 811.024841,660.294739 814.617371,661.684265 
	C817.666626,662.863647 820.570984,664.417908 823.539429,665.806274 
	C823.399109,666.210266 823.258789,666.614197 823.118408,667.018127 
	C819.806396,667.018127 816.488647,667.141235 813.183777,666.987671 
	C808.831299,666.785339 805.733032,668.339233 804.043579,673.296143 
M842.954834,569.657043 
	C842.135376,569.524048 841.318298,569.374084 840.496094,569.261047 
	C837.214233,568.809509 834.073120,568.469543 833.358643,573.050354 
	C832.713989,577.183716 834.728210,578.806702 838.488037,579.298035 
	C839.841125,579.474915 841.123291,580.194885 843.985657,581.222839 
	C839.526672,583.305298 835.792114,584.079468 833.614807,586.348022 
	C831.570129,588.478516 831.170654,592.188110 830.047302,595.202820 
	C830.553406,595.563843 831.059448,595.924866 831.565491,596.285889 
	C833.215027,595.798889 834.946411,595.492615 836.498169,594.789795 
	C840.555481,592.952271 843.760559,592.633850 847.642273,596.226135 
	C853.273071,601.437012 862.147827,598.802368 864.717224,591.497253 
	C866.181519,587.334473 866.405945,582.742188 867.266663,578.358582 
	C868.027832,574.482361 866.082520,572.785583 862.565308,572.303772 
	C856.315918,571.447571 850.062378,570.621582 842.954834,569.657043 
M217.996124,482.686310 
	C217.506607,485.467529 217.063385,488.257874 216.516129,491.027679 
	C215.787796,494.713837 217.242752,496.664764 220.950958,497.297089 
	C228.647598,498.609650 236.318848,500.070984 244.000031,501.473969 
	C247.359863,502.087646 249.377151,500.864990 250.165558,497.402100 
	C250.980255,493.823730 249.478226,492.087128 246.144547,491.329437 
	C244.534882,490.963562 242.983215,490.342590 241.405289,489.837097 
	C241.414505,489.396515 241.423706,488.955902 241.432922,488.515289 
	C244.144638,487.492340 246.944763,486.653351 249.546997,485.402588 
	C253.300003,483.598694 253.843628,480.014801 253.128113,476.513062 
	C253.025589,476.011353 248.867279,475.917114 246.733139,476.353760 
	C243.773651,476.959229 241.290161,477.881317 238.406723,475.480133 
	C229.430206,468.005066 222.027344,470.470123 217.996124,482.686310 
M259.168365,655.247253 
	C260.753418,652.643494 262.232269,649.967224 263.948608,647.453125 
	C266.453918,643.783264 264.601532,640.711060 262.428467,638.007080 
	C262.166687,637.681396 258.236542,639.400635 256.990356,640.958801 
	C254.447189,644.138611 252.019943,645.483765 247.661346,644.726746 
	C238.705597,643.171143 232.750595,649.977234 235.050858,658.783142 
	C236.137772,662.944031 237.966675,666.909912 239.436539,670.972473 
	C240.460159,673.801575 242.328415,674.267029 244.970383,673.190979 
	C252.673584,670.053467 260.405212,666.985840 268.126770,663.893433 
	C271.490051,662.546509 271.984589,660.168884 270.739258,657.020752 
	C269.469055,653.809814 267.270508,653.404053 264.296661,654.464111 
	C262.775269,655.006348 261.130524,655.202637 259.168365,655.247253 
M269.831482,405.000946 
	C272.489288,404.921265 275.528778,405.619110 277.702087,404.552338 
	C280.074188,403.387970 281.865295,400.737122 283.421478,398.408020 
	C283.857361,397.755615 282.937531,395.289459 282.017883,394.782104 
	C274.161224,390.447296 266.197144,386.301056 258.186401,382.254425 
	C255.042389,380.666260 253.273117,382.593689 251.911743,385.260162 
	C250.371674,388.276611 251.753601,389.900391 254.360428,391.170563 
	C257.450317,392.676117 260.492737,394.279083 263.555725,395.839813 
	C263.492920,396.257111 263.430115,396.674377 263.367279,397.091644 
	C258.970245,397.091644 254.573135,397.077942 250.176163,397.095642 
	C246.155807,397.111816 244.196136,399.682770 243.198425,403.104706 
	C242.129578,406.770660 245.277695,407.565826 247.540009,408.731140 
	C253.897736,412.005920 260.313568,415.168457 266.720306,418.347382 
	C269.420532,419.687225 272.103363,421.458496 274.271454,417.389801 
	C276.373474,413.445190 274.369629,411.605316 271.115204,410.037109 
	C268.737671,408.891479 266.471100,407.515564 264.155090,406.242279 
	C264.298035,405.922577 264.440979,405.602875 264.583923,405.283142 
	C266.052826,405.189789 267.521759,405.096405 269.831482,405.000946 
M832.194519,418.708405 
	C827.053528,420.644348 821.925171,422.614563 816.766724,424.502869 
	C813.858948,425.567261 812.222656,427.059326 813.612305,430.483398 
	C814.863953,433.567413 816.622375,435.149872 820.110352,434.072144 
	C821.818665,433.544342 823.615784,433.303864 826.922058,432.606537 
	C822.147766,439.299774 815.208008,444.253418 822.931335,451.956238 
	C824.117065,450.892456 825.446960,450.104645 826.207886,448.943878 
	C828.957153,444.750458 832.212097,442.747253 837.552795,444.195312 
	C839.643372,444.762146 842.517029,443.717316 844.641296,442.635529 
	C850.215759,439.796722 851.243347,434.677521 848.463501,425.926758 
	C844.674805,414.000214 844.424561,413.879395 832.194519,418.708405 
M256.108185,430.243286 
	C252.978378,429.124664 249.911957,427.757050 246.705215,426.940704 
	C240.537704,425.370667 234.074478,428.210052 230.805618,433.593842 
	C225.961578,441.572052 227.656998,450.678192 234.919403,455.689056 
	C242.987793,461.256073 254.665375,460.613190 259.653229,454.327484 
	C266.041870,446.276367 264.989258,437.744415 256.108185,430.243286 
M320.505798,778.953003 
	C328.011322,779.992676 336.543701,771.248779 338.679413,764.907104 
	C340.942841,758.186157 338.592743,752.828430 333.714111,748.332642 
	C329.121521,744.100342 323.674622,742.951050 318.066895,745.746094 
	C314.881714,747.333679 311.905151,749.692444 309.430695,752.274963 
	C305.178223,756.713196 303.054443,762.074036 305.479523,768.240417 
	C307.990814,774.625854 312.432739,778.677124 320.505798,778.953003 
M782.738037,327.040344 
	C783.112549,313.044922 772.180359,305.159515 759.663330,310.396515 
	C752.732117,313.296448 747.398560,322.030731 748.175293,329.209320 
	C748.890686,335.821106 754.712585,341.712830 761.964233,343.163513 
	C769.573486,344.685760 779.783447,337.109924 782.738037,327.040344 
M822.540161,623.352722 
	C820.979431,635.709961 828.838318,644.002808 842.040344,643.929565 
	C852.752869,643.870117 860.354370,632.960327 856.705994,622.881165 
	C854.243408,616.078003 847.361145,611.510925 839.099976,611.197876 
	C831.254211,610.900696 826.358276,614.314880 822.540161,623.352722 
M589.074036,216.354187 
	C580.065125,214.927414 580.081970,214.930054 578.668823,223.922760 
	C577.973267,228.349258 577.218384,232.766663 576.462341,237.183380 
	C574.449890,248.939957 575.091675,249.762573 587.157227,250.776169 
	C595.415710,251.469971 601.439697,248.189499 603.918762,241.247070 
	C607.414124,231.458420 607.009521,219.220490 589.074036,216.354187 
M389.094269,288.532043 
	C395.352600,281.940521 393.591064,272.547760 387.655121,265.463715 
	C382.555847,259.378113 374.742035,258.523956 366.838440,262.915924 
	C364.665466,264.123383 362.620636,265.559174 360.486816,266.839905 
	C357.980560,268.344116 357.627258,270.267334 359.144470,272.699432 
	C361.954132,277.203339 364.655273,281.776123 367.521332,286.243408 
	C375.977997,299.424683 376.472015,299.472992 389.094269,288.532043 
M515.643616,864.936646 
	C516.658203,856.843445 517.612854,848.742188 518.711060,840.660339 
	C519.310608,836.248413 517.645996,833.972534 513.107178,833.891724 
	C511.949402,833.871155 510.796448,833.599670 509.640717,833.447571 
	C497.090515,831.795410 489.356079,838.444397 489.100464,851.103943 
	C488.873169,862.363586 503.703766,871.918518 513.990906,867.107483 
	C514.543091,866.849304 514.898621,866.170593 515.643616,864.936646 
M722.817139,786.674683 
	C716.370972,777.199280 716.371033,777.199402 707.380310,783.418823 
	C699.206787,789.072876 696.912170,797.248291 701.346313,804.917847 
	C707.235535,815.104187 714.173035,817.644104 724.084229,813.047363 
	C726.625061,811.869080 728.937378,810.195984 731.346924,808.737366 
	C734.596985,806.769775 734.915161,804.269470 732.792297,801.222351 
	C729.567871,796.593994 726.410217,791.919189 722.817139,786.674683 
M804.050110,344.581055 
	C802.587280,342.561249 801.095398,339.784424 798.163818,341.787231 
	C790.486633,347.032104 782.959290,352.505737 775.522766,358.088776 
	C772.645020,360.249298 774.465698,362.863220 776.214905,364.475800 
	C777.424805,365.591278 780.482544,366.582886 781.319580,365.905670 
	C785.554016,362.479614 788.214172,363.510010 791.655090,367.334564 
	C795.591797,371.710083 801.750671,371.834656 806.219116,368.761749 
	C811.461304,365.156769 812.900574,360.667908 810.154785,354.449432 
	C808.698425,351.151276 806.375610,348.235687 804.050110,344.581055 
M277.322876,736.012695 
	C279.310730,738.881470 281.231079,741.800232 283.305542,744.604919 
	C285.358307,747.380432 287.831360,747.697876 290.619537,745.548218 
	C296.950470,740.666992 303.287659,735.793274 309.667908,730.976868 
	C312.218872,729.051147 313.013062,727.042297 310.871735,724.243774 
	C308.803864,721.541382 306.471130,720.582947 303.664856,722.868347 
	C300.478943,725.462891 298.411957,724.588928 295.740326,721.722656 
	C289.975403,715.537537 282.055878,716.114929 277.208771,722.575989 
	C274.055481,726.779175 275.064148,731.039917 277.322876,736.012695 
M497.459564,243.087173 
	C496.009094,242.963867 494.551971,242.891983 493.109650,242.705658 
	C490.713776,242.396149 488.327393,242.013123 485.937012,241.661072 
	C487.819763,240.386627 489.957886,239.359482 491.505859,237.760880 
	C492.785126,236.439819 494.133148,234.376663 493.993073,232.769348 
	C493.896912,231.666153 491.419647,230.351883 489.795349,229.911636 
	C487.968781,229.416519 485.904633,229.797745 483.943848,229.797745 
	C483.837006,229.123932 483.730164,228.450104 483.623322,227.776291 
	C485.633606,227.093918 487.616058,226.308929 489.661041,225.754456 
	C492.370300,225.019867 494.934448,224.343918 494.272003,220.594727 
	C493.656433,217.110947 491.402191,216.451538 488.383942,216.986252 
	C484.126831,217.740433 479.870239,218.498230 475.617889,219.278549 
	C472.651703,219.822861 471.305786,221.503754 471.878021,224.593002 
	C473.392426,232.768677 474.874634,240.950348 476.357544,249.131821 
	C476.995300,252.650253 479.014099,253.776932 482.470062,253.018936 
	C486.365845,252.164444 490.339783,251.666702 494.236786,250.816971 
	C499.360596,249.699722 499.808502,248.708389 497.459564,243.087173 
M797.580811,397.056671 
	C799.732605,401.191620 801.811462,405.366852 804.064636,409.445801 
	C805.338623,411.752075 807.576782,413.282654 809.702087,411.137482 
	C810.910278,409.917969 810.805969,407.281586 811.016418,405.254608 
	C811.088074,404.564789 810.111267,403.824371 809.968872,403.042389 
	C809.626648,401.162323 809.494629,399.243988 809.277893,397.341064 
	C810.875732,398.443207 812.482910,399.532288 814.061890,400.660797 
	C814.315979,400.842407 814.464172,401.188477 814.628235,401.477325 
	C816.020386,403.928558 817.854248,404.635345 820.440491,403.162354 
	C823.001343,401.703888 823.260437,399.786560 822.125488,397.255493 
	C821.338928,395.501495 820.865234,393.607208 820.251770,391.775604 
	C820.874634,391.458130 821.497437,391.140686 822.120239,390.823242 
	C823.715088,393.118622 825.017639,395.726562 827.013611,397.593048 
	C828.226440,398.727234 831.025513,399.627106 832.175049,398.976593 
	C833.453857,398.252869 834.692444,395.228607 834.163208,393.938019 
	C832.215088,389.187134 829.775269,384.576630 826.954773,380.285004 
	C826.188416,379.118866 822.970947,378.315094 821.669434,378.954681 
	C814.054871,382.696472 806.580994,386.759247 799.305481,391.123657 
	C798.037964,391.884033 797.941406,394.596558 797.580811,397.056671 
M785.585022,745.153015 
	C784.316040,747.214905 783.107971,749.317627 781.760925,751.327209 
	C780.416931,753.332092 778.971375,755.150269 781.563477,757.353271 
	C784.081726,759.493713 786.335144,759.475586 788.453552,756.963623 
	C791.557068,753.283325 794.813538,749.695984 797.512024,745.733459 
	C798.256287,744.640503 797.915894,741.621277 796.939575,740.735779 
	C790.303040,734.716431 783.440613,728.934204 776.428528,723.355164 
	C775.495361,722.612671 772.629028,722.806030 771.814575,723.664001 
	C768.051392,727.628235 764.500305,731.841309 761.345154,736.299316 
	C760.623901,737.318359 761.204895,740.314636 762.227783,741.206421 
	C763.190674,742.045654 765.873535,741.892822 767.175903,741.122192 
	C768.942688,740.076721 769.995972,737.892761 771.597961,736.470459 
	C772.298706,735.848206 773.600281,735.902466 774.628967,735.649475 
	C774.813965,736.816223 775.204590,738.000000 775.109497,739.143433 
	C775.049194,739.868835 774.305786,740.564575 773.800354,741.220886 
	C772.009827,743.545593 770.993591,745.838928 773.857788,748.118408 
	C776.765808,750.432739 778.544006,748.540405 780.654846,746.627258 
	C781.836365,745.556396 783.765930,745.310730 785.585022,745.153015 
M716.899475,273.812164 
	C718.328735,272.465240 720.561523,271.309021 720.940308,269.712860 
	C721.259888,268.366150 719.818054,265.986481 718.471313,264.979645 
	C715.022034,262.401093 711.154541,260.389679 707.525085,258.042084 
	C704.625977,256.166901 702.554321,256.975159 700.884888,259.722260 
	C696.653870,266.684998 692.439575,273.658112 688.161011,280.591553 
	C686.455872,283.354706 686.698792,285.563599 689.571045,287.335266 
	C693.391357,289.691681 697.166260,292.121918 700.992371,294.468658 
	C703.123718,295.775879 705.221252,296.583008 706.967041,293.773804 
	C708.638184,291.084778 708.058167,289.129303 705.379333,287.559235 
	C703.807312,286.637848 702.167847,285.702515 700.911865,284.425934 
	C700.295776,283.799744 700.035400,282.125061 700.448914,281.402679 
	C700.787170,280.811676 702.393921,280.680847 703.381104,280.804169 
	C704.312439,280.920471 705.204285,281.577271 706.052002,282.096710 
	C708.617676,283.668884 711.245728,283.644409 712.156799,280.652100 
	C712.649841,279.032684 711.455322,276.643555 710.476074,274.909973 
	C709.640625,273.430664 708.025208,272.391876 706.754822,271.158203 
	C707.124573,270.606171 707.494263,270.054138 707.864014,269.502136 
	C710.675903,270.873657 713.487854,272.245178 716.899475,273.812164 
M636.391846,240.278992 
	C634.947876,239.462006 633.503967,238.645004 632.060059,237.828018 
	C632.236816,237.203293 632.413574,236.578568 632.590332,235.953842 
	C635.146545,236.355118 637.741272,237.217133 640.246277,237.007370 
	C642.143494,236.848480 644.715576,235.786438 645.586975,234.303452 
	C647.150024,231.643417 645.443848,229.625443 642.565613,228.772614 
	C638.425171,227.545792 634.284546,226.319672 630.148254,225.078934 
	C626.811829,224.078110 624.680176,225.232513 623.678955,228.576523 
	C621.391968,236.214111 619.075378,243.842789 616.776428,251.476776 
	C615.848572,254.558014 616.857605,256.738892 619.937866,257.732239 
	C624.520996,259.210266 629.087708,260.832153 633.782776,261.809601 
	C635.072388,262.078094 637.843445,260.474976 638.062195,259.362457 
	C638.359924,257.848328 637.296814,255.449829 636.020142,254.400208 
	C634.451782,253.110779 631.973389,252.992859 630.069336,252.015778 
	C629.295593,251.618744 628.657959,250.304947 628.625916,249.385056 
	C628.609619,248.915207 630.033936,248.063950 630.868347,247.977676 
	C631.972900,247.863449 633.233276,248.716461 634.255798,248.463440 
	C636.219910,247.977432 638.846619,247.528931 639.787048,246.121643 
	C641.500000,243.558548 639.978333,241.428009 636.391846,240.278992 
M391.188293,825.638611 
	C394.742859,819.444519 398.225403,813.207458 401.879242,807.072449 
	C404.036835,803.449829 403.369293,800.894043 399.664825,798.897766 
	C396.303864,797.086609 393.020813,795.124634 389.758698,793.138367 
	C387.208801,791.585754 384.830353,790.915466 382.887665,793.934204 
	C380.758942,797.241882 383.271698,798.531982 385.460907,800.233582 
	C387.360168,801.709778 390.604553,804.656250 390.249237,805.303650 
	C388.210968,809.017822 385.765167,805.581970 383.624969,804.769287 
	C380.807892,803.699341 379.284637,804.606140 377.946259,806.996704 
	C376.578857,809.439026 377.268616,810.935242 379.537201,812.312622 
	C381.179840,813.310059 382.558685,814.742004 384.055176,815.980164 
	C383.717468,816.556091 383.379791,817.132019 383.042084,817.708008 
	C380.727997,816.805847 378.304199,816.109680 376.127167,814.950195 
	C373.315033,813.452515 371.489777,814.138428 369.906036,816.722168 
	C368.278351,819.377747 369.263885,821.068848 371.636078,822.435303 
	C375.233246,824.507385 378.850739,826.546143 382.409088,828.683167 
	C386.136627,830.921814 389.005676,830.457153 391.188293,825.638611 
M615.424988,827.226746 
	C609.601868,828.081299 603.722473,828.686279 597.997681,829.976807 
	C596.671875,830.275757 595.873840,832.915527 594.832947,834.478149 
	C596.487366,835.470459 598.039124,836.922058 599.826050,837.321472 
	C601.498352,837.695312 603.429443,836.724121 605.227783,836.798706 
	C606.150513,836.836975 607.032104,837.866577 607.932251,838.448242 
	C607.311157,839.307800 606.814026,840.313843 606.028137,840.978699 
	C605.442261,841.474243 604.497437,841.596130 603.687683,841.767029 
	C600.844421,842.367371 599.177124,843.740967 599.826233,846.974060 
	C600.484741,850.254211 602.536926,850.676636 605.416260,850.173706 
	C607.115417,849.876892 608.908813,850.119507 610.659790,850.119507 
	C610.772766,850.778931 610.885742,851.438354 610.998718,852.097839 
	C608.487915,852.987915 605.662231,853.434021 603.571411,854.916382 
	C602.054382,855.992004 600.767029,858.463623 600.824646,860.266418 
	C600.856628,861.267944 603.962036,863.119019 605.498474,862.946960 
	C610.099243,862.431641 614.718079,861.425476 619.095825,859.927185 
	C620.612549,859.408081 622.656006,856.644348 622.392273,855.316162 
	C620.554016,846.057617 618.172791,836.906860 615.424988,827.226746 
M274.740479,683.978088 
	C274.821930,684.122803 274.946106,684.258606 274.978485,684.413574 
	C275.531189,687.058594 276.072510,689.705994 276.616272,692.352966 
	C274.788391,690.851990 273.131287,689.022644 271.078064,687.955017 
	C269.465546,687.116516 266.897766,686.407532 265.616119,687.142944 
	C264.445343,687.814819 263.889740,690.552673 264.049683,692.289124 
	C264.234833,694.299011 265.497986,696.209656 266.293152,698.163391 
	C265.634583,698.530945 264.976044,698.898438 264.317474,699.265991 
	C262.808624,697.165222 261.655182,694.589478 259.680206,693.111511 
	C258.054626,691.895081 255.234283,691.163086 253.336624,691.674805 
	C250.244354,692.508606 251.026535,695.208130 252.257812,697.397949 
	C254.536224,701.450195 256.931854,705.436401 259.221558,709.482422 
	C260.647797,712.002686 262.477448,712.519470 265.005829,711.062805 
	C272.487549,706.752319 279.985687,702.469727 287.511444,698.236694 
	C290.102997,696.779053 290.462067,694.979248 288.982361,692.477234 
	C286.615814,688.475647 284.565216,684.272522 281.984192,680.420471 
	C281.084381,679.077576 278.812836,677.551208 277.513245,677.814453 
	C275.014771,678.320435 273.054016,680.196838 274.740479,683.978088 
M324.214233,342.724915 
	C325.195862,341.598816 326.178253,340.473358 327.158966,339.346497 
	C328.748047,337.520630 331.239502,335.899017 328.228119,333.213867 
	C325.608673,330.878204 323.350647,330.655243 321.282654,333.898590 
	C320.668060,334.862579 319.880737,335.943359 318.905853,336.394989 
	C317.602142,336.999023 316.038605,337.042358 314.586639,337.326477 
	C314.814270,335.995697 314.939453,334.634949 315.316101,333.347778 
	C315.484375,332.772827 316.140503,332.328857 316.604675,331.854279 
	C318.975952,329.429871 317.946533,327.443451 315.895050,325.470612 
	C313.781128,323.437683 312.183594,324.265472 310.367737,325.996735 
	C309.014130,327.287323 307.283966,328.182953 305.721497,329.254456 
	C305.223846,328.717163 304.726227,328.179901 304.228577,327.642609 
	C305.814911,325.546356 307.845734,323.635834 308.827179,321.286865 
	C309.453857,319.786865 309.166779,316.976654 308.119507,315.965546 
	C307.061859,314.944397 303.778198,314.544922 302.830902,315.393158 
	C299.267059,318.584534 296.276062,322.412018 293.035797,325.969574 
	C290.604248,328.639252 291.086731,330.916077 293.672180,333.200989 
	C297.774597,336.826508 301.801971,340.539307 305.796631,344.283936 
	C315.164337,353.065216 315.464478,353.064453 324.214233,342.724915 
M457.437531,849.412048 
	C455.974854,849.107544 454.484802,848.896606 453.055298,848.478638 
	C450.219543,847.649475 448.169495,848.213440 447.192871,851.276550 
	C446.181305,854.449158 447.790192,856.014954 450.547974,856.785583 
	C454.867798,857.992493 459.169922,859.460144 463.581757,860.039856 
	C465.254089,860.259705 468.400269,858.701538 468.840942,857.309814 
	C471.495636,848.925171 473.663116,840.378052 475.700348,831.815613 
	C475.977142,830.652222 474.914368,828.195190 473.957855,827.875671 
	C468.773376,826.143799 463.472931,824.645996 458.103241,823.664978 
	C456.837158,823.433655 454.262604,825.269836 453.915375,826.584290 
	C453.589661,827.817200 455.072479,830.086731 456.384064,831.046875 
	C457.902771,832.158569 460.192017,832.153992 461.968536,833.005676 
	C462.786957,833.398010 463.181396,834.674866 463.768066,835.550659 
	C462.861115,836.107849 462.007111,836.972595 461.033112,837.140320 
	C459.944885,837.327637 458.560669,836.428040 457.637329,836.808167 
	C455.767792,837.577698 453.463226,838.546326 452.640991,840.115540 
	C452.175934,841.003174 454.079987,843.446777 455.332214,844.807312 
	C456.146027,845.691589 457.899719,845.672241 458.833405,846.505005 
	C459.175446,846.809937 458.367737,848.404114 457.437531,849.412048 
M681.083130,245.305817 
	C676.860107,249.986649 672.637024,254.667465 667.379578,260.494843 
	C667.902283,257.046875 668.197693,255.115646 668.487366,253.183563 
	C669.029968,249.564041 669.740662,245.959290 670.064880,242.320206 
	C670.437134,238.142868 666.916382,237.518982 664.101746,237.047714 
	C663.062622,236.873688 660.756653,238.711899 660.570557,239.878403 
	C659.129639,248.910492 657.831787,257.983704 657.090027,267.093079 
	C656.946838,268.851288 659.046753,271.454773 660.807556,272.548004 
	C663.363342,274.134796 666.616455,275.756744 669.410828,272.552094 
	C675.422974,265.657288 681.406494,258.737091 687.343933,251.777954 
	C689.315613,249.466995 689.015381,247.516724 685.968933,246.435669 
	C684.574646,245.940903 683.125671,245.600098 681.083130,245.305817 
M422.638702,846.786560 
	C428.048309,850.403259 430.284912,850.292358 430.887848,845.960693 
	C432.146332,836.919312 433.238037,827.816467 433.540497,818.710449 
	C433.606018,816.737549 430.388031,813.979248 428.065247,812.827148 
	C426.347931,811.975342 422.660461,812.277649 421.516571,813.556152 
	C415.208344,820.606628 409.382782,828.091614 403.459442,835.481934 
	C401.825439,837.520630 402.418274,838.981018 404.819366,840.134277 
	C408.740540,842.017517 411.750000,841.517334 414.212646,837.707336 
	C416.712555,833.839722 419.473785,830.140991 422.120575,826.368347 
	C422.541748,826.619385 422.962921,826.870361 423.384094,827.121399 
	C423.115021,829.235107 422.716553,831.342041 422.604218,833.464050 
	C422.379517,837.709534 422.311493,841.963257 422.638702,846.786560 
M213.001846,527.481812 
	C213.044296,529.471985 212.530823,531.711487 213.281006,533.384277 
	C214.077560,535.160400 215.962402,537.524414 217.563614,537.681763 
	C225.469543,538.458679 233.437271,538.637390 241.386932,538.922974 
	C244.345398,539.029236 246.617203,538.028381 246.849136,534.545410 
	C247.079208,531.090454 245.487503,529.189392 242.080276,528.864685 
	C237.656296,528.443054 235.075455,526.781738 235.575897,521.609619 
	C235.701950,520.306885 233.015671,517.455750 231.937271,517.604431 
	C230.210938,517.842407 228.558228,519.834290 227.256104,521.401855 
	C226.628586,522.157288 227.108475,523.742981 226.650467,524.755188 
	C226.233353,525.677002 225.225983,526.331726 224.478836,527.104187 
	C223.746262,526.312927 222.604858,525.626648 222.368958,524.707825 
	C221.922195,522.967773 222.473953,520.856567 221.721832,519.340759 
	C220.914398,517.713379 219.084961,515.538879 217.700745,515.538330 
	C216.215714,515.537781 213.986877,517.526733 213.423325,519.121399 
	C212.633469,521.356384 213.082764,524.029297 213.001846,527.481812 
M855.249756,547.956787 
	C856.400574,546.570129 857.551453,545.183472 858.702271,543.796814 
	C859.175293,545.388794 859.719849,546.964294 860.090759,548.579712 
	C860.272156,549.369629 860.089355,550.236450 860.142700,551.063782 
	C860.330139,553.972900 861.829346,556.257874 864.755920,555.538696 
	C866.404236,555.133606 868.493530,552.780090 868.722717,551.080200 
	C869.294922,546.836304 868.942017,542.464111 868.913452,538.143799 
	C868.892334,534.950562 867.306091,533.225525 864.045715,533.081421 
	C856.583801,532.751831 849.124878,532.352173 841.661743,532.056030 
	C838.248718,531.920532 835.262634,532.447510 835.104065,536.908203 
	C834.953003,541.159973 837.058655,543.032837 841.126831,542.986877 
	C844.994690,542.943237 846.663513,544.766296 847.188110,548.653198 
	C847.431580,550.457214 849.244446,553.077087 850.804626,553.460815 
	C854.003418,554.247192 854.777039,551.363159 855.249756,547.956787 
M277.161957,345.864288 
	C273.588379,350.876617 269.794800,355.753876 266.580505,360.986877 
	C265.662933,362.480713 265.620575,365.601562 266.598877,366.925812 
	C268.235291,369.140869 271.120819,369.216614 272.992828,366.694580 
	C275.197784,363.723999 277.299622,364.420624 279.769806,366.184113 
	C283.831360,369.083740 287.995544,371.839233 292.080597,374.706543 
	C295.041840,376.785065 297.448364,376.734650 299.678894,373.497589 
	C301.881104,370.301605 300.683044,368.405365 297.893707,366.555054 
	C293.873932,363.888458 289.991455,361.015717 286.024994,358.267609 
	C283.199982,356.310364 282.021606,354.203430 283.951447,350.700836 
	C284.622040,349.483704 284.121094,346.482971 283.110931,345.763916 
	C281.827484,344.850342 279.481750,345.429047 277.161957,345.864288 
M820.519775,702.446960 
	C819.078369,702.944946 816.949707,703.012024 816.318848,704.018250 
	C814.034363,707.661438 811.747803,706.901306 808.868286,704.936646 
	C804.745850,702.123901 800.450500,699.565491 796.254456,696.859070 
	C793.154968,694.859924 791.029541,695.957153 789.174927,698.766479 
	C787.273865,701.646301 787.945923,703.641663 790.780884,705.363708 
	C795.048340,707.955811 799.185303,710.763306 803.463013,713.337585 
	C806.445007,715.132202 808.088501,717.092896 805.728943,720.548950 
	C804.058350,722.995789 804.914368,724.931091 807.309875,726.380920 
	C809.851990,727.919495 811.690491,727.100098 813.177368,724.758728 
	C816.389954,719.699951 819.621399,714.652832 822.881165,709.624268 
	C824.819519,706.634216 824.391602,704.313110 820.519775,702.446960 
M732.780396,285.297760 
	C728.431946,290.745056 723.956787,296.099182 719.831055,301.710205 
	C718.891602,302.987823 718.294922,306.088257 719.016357,306.756683 
	C723.139099,310.576508 727.573486,314.114594 732.235962,317.252136 
	C733.194092,317.896851 736.073914,316.903992 737.123047,315.782196 
	C737.866333,314.987488 737.357056,312.566833 736.771484,311.131195 
	C736.323364,310.032623 734.954041,309.233398 733.867249,308.486084 
	C730.577820,306.223999 730.799438,303.942719 733.283508,301.094330 
	C736.661377,297.221161 739.825317,293.152588 742.935791,289.057526 
	C745.930420,285.114960 744.526123,280.776703 739.690186,280.492462 
	C737.616760,280.370575 735.367981,283.231201 732.780396,285.297760 
M358.212250,783.530090 
	C354.704987,788.717529 351.242188,793.935913 347.672333,799.079895 
	C345.779083,801.807922 344.715210,804.222534 348.068604,806.761597 
	C351.236511,809.160156 353.529053,808.268677 355.651245,805.438171 
	C360.532623,798.927368 365.417114,792.418823 370.325806,785.928650 
	C372.006531,783.706360 372.134094,781.802368 369.650787,780.008179 
	C365.747925,777.188293 361.907776,774.279724 358.086334,771.349731 
	C355.805176,769.600647 353.993011,769.720459 352.191925,772.133057 
	C350.311646,774.651794 351.225525,776.266235 353.320892,778.005554 
	C355.068390,779.456116 356.535980,781.243958 358.212250,783.530090 
M843.106140,495.294556 
	C844.683533,494.856537 847.657715,494.254608 847.628418,494.005096 
	C847.201233,490.365356 846.537537,486.722351 845.467529,483.221527 
	C845.301697,482.678802 842.661133,482.378082 841.498840,482.827942 
	C840.668335,483.149353 839.799927,485.026611 839.986694,486.013092 
	C840.557007,489.025604 841.629456,491.943054 843.106140,495.294556 
M235.549606,600.003540 
	C235.610214,600.330017 235.636017,600.667664 235.736862,600.981201 
	C236.586517,603.622864 236.067032,607.887268 240.563889,606.958008 
	C245.256027,605.988403 243.199127,602.106079 242.912796,599.154785 
	C242.880936,598.826416 242.880905,598.422546 242.694489,598.193237 
	C241.457520,596.671570 240.251175,594.016357 238.889740,593.926331 
	C235.665115,593.713318 235.128677,596.464355 235.549606,600.003540 
z"/>
<path fill="#0D0D0D" opacity="1.000000" stroke="none" 
	d="
M663.437744,831.806396 
	C662.629944,830.405579 661.981323,829.301086 661.332703,828.196655 
	C661.042114,828.277344 660.751587,828.358032 660.460999,828.438721 
	C661.102661,832.450684 661.687744,836.472778 662.404297,840.471313 
	C662.961548,843.581116 662.448730,845.984924 659.224487,847.442688 
	C655.717041,849.028381 653.995972,847.066833 652.332642,844.519958 
	C650.174255,841.214905 647.931213,837.965210 644.617859,835.129639 
	C645.507019,838.856567 646.812317,842.549438 647.120972,846.323792 
	C647.291382,848.408813 646.407166,851.332520 644.914185,852.643311 
	C641.879150,855.308228 639.344543,854.247620 638.436218,850.287659 
	C636.539673,842.019897 634.947205,833.682678 633.084961,825.406616 
	C632.336182,822.078796 633.815063,820.358826 636.685669,819.347107 
	C639.878906,818.221741 643.202576,815.805664 646.078735,819.817200 
	C647.701660,822.080750 649.106201,824.500854 651.751709,826.674500 
	C651.525940,824.386414 651.564880,822.032776 651.017883,819.824219 
	C649.954407,815.530151 651.709900,813.355957 655.646667,811.919128 
	C659.471985,810.523132 662.179077,810.729431 664.394653,814.675110 
	C668.220520,821.488708 672.428833,828.087830 676.491821,834.767700 
	C677.755554,836.845459 679.125427,839.003479 676.153687,840.701843 
	C673.297668,842.333923 670.175598,843.625549 667.820618,840.014893 
	C666.193665,837.520386 664.989868,834.749939 663.437744,831.806396 
z"/>
<path fill="#0D0D0D" opacity="1.000000" stroke="none" 
	d="
M426.153870,258.822754 
	C423.024902,253.098953 420.081451,247.689774 417.084320,242.310501 
	C415.723999,239.869019 414.976807,237.597809 418.331512,236.194000 
	C421.161346,235.009842 424.070801,233.715515 426.013123,237.583527 
	C427.905334,241.351761 429.797760,245.119904 431.690063,248.888092 
	C432.073883,248.766937 432.457703,248.645782 432.841522,248.524643 
	C432.406616,245.131668 432.063324,241.723709 431.511078,238.349960 
	C430.953186,234.941940 431.197693,232.113251 434.916595,230.497986 
	C438.842224,228.792938 440.368958,231.479416 442.000427,234.036255 
	C444.288605,237.622314 446.495575,241.260193 449.306396,244.616516 
	C448.423126,240.259232 447.584808,235.892181 446.642731,231.547623 
	C445.843475,227.861954 447.389618,225.791840 450.919800,225.001648 
	C454.764557,224.141037 455.429291,226.847397 455.906891,229.599091 
	C457.244446,237.305450 458.449677,245.035370 459.850677,252.729858 
	C460.502197,256.308380 459.305115,258.469757 455.818207,259.557465 
	C452.463898,260.603790 449.136597,262.343628 446.671875,258.018982 
	C445.315857,255.639648 443.757324,253.375717 441.110565,251.397507 
	C441.426453,253.915558 441.505371,256.491943 442.108032,258.939392 
	C443.319763,263.860260 439.789703,264.806854 436.532623,266.219879 
	C433.294800,267.624573 430.776703,267.421204 429.112610,263.874390 
	C428.338898,262.225311 427.258698,260.720032 426.153870,258.822754 
z"/>
<path fill="#0D0D0D" opacity="1.000000" stroke="none" 
	d="
M520.404419,213.182190 
	C524.470947,213.429352 528.148926,213.432297 531.713989,214.068329 
	C537.290100,215.063187 539.939087,219.309937 538.233398,224.708527 
	C537.341125,227.532852 537.566284,229.470718 539.320618,231.967194 
	C543.094116,237.337112 540.373779,244.795074 534.035767,246.245407 
	C529.230469,247.344986 524.196228,247.535706 519.246399,247.878799 
	C516.115540,248.095795 514.252197,246.459076 514.093201,243.165359 
	C513.741638,235.879700 513.473572,228.587967 512.976440,221.312027 
	C512.624146,216.155670 514.782471,213.454483 520.404419,213.182190 
z"/>
<path fill="#0D0D0D" opacity="1.000000" stroke="none" 
	d="
M554.119141,840.106079 
	C557.333679,835.343811 561.798340,834.178955 566.881042,833.944702 
	C579.238037,833.375061 579.207214,833.292542 580.116821,845.551331 
	C580.498718,850.697266 580.830872,855.859070 581.539001,860.964722 
	C582.136292,865.271729 580.296204,867.476685 576.272766,867.645447 
	C571.636658,867.839905 566.903748,868.014893 562.350220,867.310486 
	C556.667725,866.431396 554.859192,862.625427 555.779236,857.045410 
	C556.159241,854.740845 555.546387,851.985107 554.557983,849.810425 
	C553.111755,846.628418 551.813477,843.714661 554.119141,840.106079 
z"/>
<path fill="#0D0D0D" opacity="1.000000" stroke="none" 
	d="
M752.017334,766.985107 
	C749.840393,764.293152 747.749329,761.525513 745.461609,758.931213 
	C743.291077,756.469666 743.190979,754.286377 745.701294,752.051270 
	C748.055908,749.954834 750.326355,749.571350 752.610291,752.138000 
	C758.351013,758.589233 764.204163,764.945862 769.741089,771.567261 
	C770.561401,772.548279 770.582703,775.649963 769.811890,776.231873 
	C767.649597,777.864563 764.700256,779.914612 762.388367,779.574829 
	C758.045105,778.936584 753.931763,776.734009 749.322754,775.052673 
	C748.922729,774.923462 748.748413,774.916565 748.748413,774.916565 
	C748.748413,774.916565 748.979980,775.017395 748.979980,775.017395 
	C751.037659,777.578064 752.950684,780.274231 755.191162,782.663513 
	C757.744873,785.386902 757.788025,787.712769 755.107178,790.354065 
	C752.228210,793.190735 750.068542,791.762268 747.996826,789.449219 
	C742.918335,783.778992 737.737549,778.189148 732.922607,772.301514 
	C731.605347,770.690796 730.300293,767.625061 730.978882,766.129883 
	C732.362793,763.080933 735.339905,761.021423 739.181763,762.331726 
	C743.251282,763.719604 747.249573,765.316162 751.678101,766.948120 
	C752.077209,767.074646 752.248901,767.082886 752.248901,767.082886 
	C752.248901,767.082886 752.017334,766.985107 752.017334,766.985107 
z"/>
<path fill="#0D0D0D" opacity="1.000000" stroke="none" 
	d="
M804.167969,672.959412 
	C805.733032,668.339233 808.831299,666.785339 813.183777,666.987671 
	C816.488647,667.141235 819.806396,667.018127 823.118408,667.018127 
	C823.258789,666.614197 823.399109,666.210266 823.539429,665.806274 
	C820.570984,664.417908 817.666626,662.863647 814.617371,661.684265 
	C811.024841,660.294739 810.845825,658.067993 812.227600,654.947510 
	C813.658875,651.715088 815.744019,651.432373 818.675903,652.838684 
	C825.584961,656.152649 832.635254,659.185669 839.433533,662.708435 
	C841.279541,663.664978 843.734619,666.045776 843.631226,667.623657 
	C843.416016,670.910889 841.602112,673.993164 837.441406,674.296997 
	C833.478821,674.586304 829.521973,674.954590 825.143127,676.306641 
	C827.511719,677.452271 829.859985,678.642456 832.253967,679.732300 
	C835.321655,681.128723 837.320312,682.856140 835.629944,686.674927 
	C833.910645,690.559021 831.362427,690.086853 828.279785,688.626892 
	C821.354553,685.346985 814.391296,682.146423 807.419250,678.966553 
	C804.933167,677.832642 802.994690,676.482727 804.167969,672.959412 
z"/>
<path fill="#0D0D0D" opacity="1.000000" stroke="none" 
	d="
M338.981049,307.016296 
	C341.217651,310.100220 343.760712,313.020020 345.542572,316.347504 
	C346.271973,317.709625 345.992950,320.444244 345.039429,321.680359 
	C343.602356,323.543365 341.196899,325.378387 338.769043,322.521851 
	C332.954956,315.681213 327.098602,308.870789 321.527557,301.835785 
	C320.752869,300.857544 320.887543,298.261261 321.658081,297.140686 
	C323.360840,294.664398 325.702362,292.571167 329.246155,293.989532 
	C333.260986,295.596405 337.278534,297.196320 341.686279,298.936218 
	C342.077667,299.073181 342.246277,299.082123 342.246277,299.082123 
	C342.246277,299.082123 342.014801,298.987457 342.014801,298.987457 
	C340.137787,296.265228 338.419250,293.414337 336.341553,290.855042 
	C334.022369,287.998352 334.509125,285.810181 337.201782,283.651672 
	C339.928162,281.466095 341.869507,282.298035 343.903595,284.802429 
	C348.613861,290.601654 353.703430,296.102081 358.228851,302.036560 
	C359.584961,303.814972 360.815918,307.355133 359.952271,308.815430 
	C358.116760,311.918915 354.962128,314.106415 350.667023,311.944550 
	C347.114075,310.156219 343.360809,308.765747 339.309540,307.061615 
	C338.922760,306.924225 338.749481,306.916809 338.749481,306.916809 
	C338.749481,306.916809 338.981049,307.016296 338.981049,307.016296 
z"/>
<path fill="#0D0D0D" opacity="1.000000" stroke="none" 
	d="
M843.382690,569.719971 
	C850.062378,570.621582 856.315918,571.447571 862.565308,572.303772 
	C866.082520,572.785583 868.027832,574.482361 867.266663,578.358582 
	C866.405945,582.742188 866.181519,587.334473 864.717224,591.497253 
	C862.147827,598.802368 853.273071,601.437012 847.642273,596.226135 
	C843.760559,592.633850 840.555481,592.952271 836.498169,594.789795 
	C834.946411,595.492615 833.215027,595.798889 831.565491,596.285889 
	C831.059448,595.924866 830.553406,595.563843 830.047302,595.202820 
	C831.170654,592.188110 831.570129,588.478516 833.614807,586.348022 
	C835.792114,584.079468 839.526672,583.305298 843.985657,581.222839 
	C841.123291,580.194885 839.841125,579.474915 838.488037,579.298035 
	C834.728210,578.806702 832.713989,577.183716 833.358643,573.050354 
	C834.073120,568.469543 837.214233,568.809509 840.496094,569.261047 
	C841.318298,569.374084 842.135376,569.524048 843.382690,569.719971 
z"/>
<path fill="#0D0D0D" opacity="1.000000" stroke="none" 
	d="
M218.084015,482.292175 
	C222.027344,470.470123 229.430206,468.005066 238.406723,475.480133 
	C241.290161,477.881317 243.773651,476.959229 246.733139,476.353760 
	C248.867279,475.917114 253.025589,476.011353 253.128113,476.513062 
	C253.843628,480.014801 253.300003,483.598694 249.546997,485.402588 
	C246.944763,486.653351 244.144638,487.492340 241.432922,488.515289 
	C241.423706,488.955902 241.414505,489.396515 241.405289,489.837097 
	C242.983215,490.342590 244.534882,490.963562 246.144547,491.329437 
	C249.478226,492.087128 250.980255,493.823730 250.165558,497.402100 
	C249.377151,500.864990 247.359863,502.087646 244.000031,501.473969 
	C236.318848,500.070984 228.647598,498.609650 220.950958,497.297089 
	C217.242752,496.664764 215.787796,494.713837 216.516129,491.027679 
	C217.063385,488.257874 217.506607,485.467529 218.084015,482.292175 
z"/>
<path fill="#0D0D0D" opacity="1.000000" stroke="none" 
	d="
M259.354919,655.401245 
	C261.130524,655.202637 262.775269,655.006348 264.296661,654.464111 
	C267.270508,653.404053 269.469055,653.809814 270.739258,657.020752 
	C271.984589,660.168884 271.490051,662.546509 268.126770,663.893433 
	C260.405212,666.985840 252.673584,670.053467 244.970383,673.190979 
	C242.328415,674.267029 240.460159,673.801575 239.436539,670.972473 
	C237.966675,666.909912 236.137772,662.944031 235.050858,658.783142 
	C232.750595,649.977234 238.705597,643.171143 247.661346,644.726746 
	C252.019943,645.483765 254.447189,644.138611 256.990356,640.958801 
	C258.236542,639.400635 262.166687,637.681396 262.428467,638.007080 
	C264.601532,640.711060 266.453918,643.783264 263.948608,647.453125 
	C262.232269,649.967224 260.753418,652.643494 259.354919,655.401245 
z"/>
<path fill="#0D0D0D" opacity="1.000000" stroke="none" 
	d="
M269.411072,405.002014 
	C267.521759,405.096405 266.052826,405.189789 264.583923,405.283142 
	C264.440979,405.602875 264.298035,405.922577 264.155090,406.242279 
	C266.471100,407.515564 268.737671,408.891479 271.115204,410.037109 
	C274.369629,411.605316 276.373474,413.445190 274.271454,417.389801 
	C272.103363,421.458496 269.420532,419.687225 266.720306,418.347382 
	C260.313568,415.168457 253.897736,412.005920 247.540009,408.731140 
	C245.277695,407.565826 242.129578,406.770660 243.198425,403.104706 
	C244.196136,399.682770 246.155807,397.111816 250.176163,397.095642 
	C254.573135,397.077942 258.970245,397.091644 263.367279,397.091644 
	C263.430115,396.674377 263.492920,396.257111 263.555725,395.839813 
	C260.492737,394.279083 257.450317,392.676117 254.360428,391.170563 
	C251.753601,389.900391 250.371674,388.276611 251.911743,385.260162 
	C253.273117,382.593689 255.042389,380.666260 258.186401,382.254425 
	C266.197144,386.301056 274.161224,390.447296 282.017883,394.782104 
	C282.937531,395.289459 283.857361,397.755615 283.421478,398.408020 
	C281.865295,400.737122 280.074188,403.387970 277.702087,404.552338 
	C275.528778,405.619110 272.489288,404.921265 269.411072,405.002014 
z"/>
<path fill="#0D0D0D" opacity="1.000000" stroke="none" 
	d="
M832.556213,418.567627 
	C844.424561,413.879395 844.674805,414.000214 848.463501,425.926758 
	C851.243347,434.677521 850.215759,439.796722 844.641296,442.635529 
	C842.517029,443.717316 839.643372,444.762146 837.552795,444.195312 
	C832.212097,442.747253 828.957153,444.750458 826.207886,448.943878 
	C825.446960,450.104645 824.117065,450.892456 822.931335,451.956238 
	C815.208008,444.253418 822.147766,439.299774 826.922058,432.606537 
	C823.615784,433.303864 821.818665,433.544342 820.110352,434.072144 
	C816.622375,435.149872 814.863953,433.567413 813.612305,430.483398 
	C812.222656,427.059326 813.858948,425.567261 816.766724,424.502869 
	C821.925171,422.614563 827.053528,420.644348 832.556213,418.567627 
z"/>
<path fill="#0D0D0D" opacity="1.000000" stroke="none" 
	d="
M256.419006,430.437744 
	C264.989258,437.744415 266.041870,446.276367 259.653229,454.327484 
	C254.665375,460.613190 242.987793,461.256073 234.919403,455.689056 
	C227.656998,450.678192 225.961578,441.572052 230.805618,433.593842 
	C234.074478,428.210052 240.537704,425.370667 246.705215,426.940704 
	C249.911957,427.757050 252.978378,429.124664 256.419006,430.437744 
M237.445282,441.475464 
	C239.137238,446.937744 245.386169,450.789612 250.478210,448.729767 
	C252.212845,448.028076 254.276047,443.364532 253.932358,443.060272 
	C251.356812,440.780029 248.411499,438.569397 245.194672,437.464600 
	C242.285843,436.465546 238.816757,436.735199 237.445282,441.475464 
z"/>
<path fill="#0D0D0D" opacity="1.000000" stroke="none" 
	d="
M320.077515,778.947205 
	C312.432739,778.677124 307.990814,774.625854 305.479523,768.240417 
	C303.054443,762.074036 305.178223,756.713196 309.430695,752.274963 
	C311.905151,749.692444 314.881714,747.333679 318.066895,745.746094 
	C323.674622,742.951050 329.121521,744.100342 333.714111,748.332642 
	C338.592743,752.828430 340.942841,758.186157 338.679413,764.907104 
	C336.543701,771.248779 328.011322,779.992676 320.077515,778.947205 
M323.206696,754.771606 
	C320.632690,757.056091 317.663086,759.048279 315.662292,761.756287 
	C314.749878,762.991211 315.034302,766.251160 316.081665,767.476257 
	C317.154419,768.731018 320.280579,769.575562 321.694489,768.899170 
	C324.245697,767.678833 326.669861,765.519653 328.284973,763.161987 
	C331.265198,758.811523 329.400665,755.550415 323.206696,754.771606 
z"/>
<path fill="#0D0D0D" opacity="1.000000" stroke="none" 
	d="
M782.673340,327.442810 
	C779.783447,337.109924 769.573486,344.685760 761.964233,343.163513 
	C754.712585,341.712830 748.890686,335.821106 748.175293,329.209320 
	C747.398560,322.030731 752.732117,313.296448 759.663330,310.396515 
	C772.180359,305.159515 783.112549,313.044922 782.673340,327.442810 
M768.411072,330.987793 
	C769.205505,330.143982 770.135376,329.390320 770.768677,328.439209 
	C772.537476,325.782684 774.590637,322.835480 771.606323,319.972168 
	C768.590637,317.078766 765.486511,318.531158 762.751160,320.889282 
	C762.001099,321.535889 761.280762,322.242615 760.666748,323.016907 
	C758.475281,325.780518 756.885315,328.973328 759.478027,332.024506 
	C762.127197,335.142059 765.165649,333.431793 768.411072,330.987793 
z"/>
<path fill="#0D0D0D" opacity="1.000000" stroke="none" 
	d="
M822.655640,622.968750 
	C826.358276,614.314880 831.254211,610.900696 839.099976,611.197876 
	C847.361145,611.510925 854.243408,616.078003 856.705994,622.881165 
	C860.354370,632.960327 852.752869,643.870117 842.040344,643.929565 
	C828.838318,644.002808 820.979431,635.709961 822.655640,622.968750 
M834.572144,622.275208 
	C830.654480,625.310730 830.155701,628.627258 833.960083,630.817383 
	C836.792908,632.448303 840.421204,633.182434 843.727905,633.287292 
	C845.232727,633.335022 847.757996,631.100159 848.098511,629.527832 
	C848.436157,627.968384 847.039307,624.905640 845.645081,624.326172 
	C842.428345,622.989197 838.752319,622.757568 834.572144,622.275208 
z"/>
<path fill="#0D0D0D" opacity="1.000000" stroke="none" 
	d="
M589.476746,216.439667 
	C607.009521,219.220490 607.414124,231.458420 603.918762,241.247070 
	C601.439697,248.189499 595.415710,251.469971 587.157227,250.776169 
	C575.091675,249.762573 574.449890,248.939957 576.462341,237.183380 
	C577.218384,232.766663 577.973267,228.349258 578.668823,223.922760 
	C580.081970,214.930054 580.065125,214.927414 589.476746,216.439667 
M586.673462,239.902084 
	C588.218933,240.386551 590.137207,241.701263 591.242310,241.205032 
	C595.069336,239.486618 596.313904,230.388458 593.316589,227.446243 
	C590.954529,225.127640 589.019958,225.815430 588.317505,228.914108 
	C587.550476,232.297623 587.189758,235.773254 586.673462,239.902084 
z"/>
<path fill="#0D0D0D" opacity="1.000000" stroke="none" 
	d="
M388.854980,288.802795 
	C376.472015,299.472992 375.977997,299.424683 367.521332,286.243408 
	C364.655273,281.776123 361.954132,277.203339 359.144470,272.699432 
	C357.627258,270.267334 357.980560,268.344116 360.486816,266.839905 
	C362.620636,265.559174 364.665466,264.123383 366.838440,262.915924 
	C374.742035,258.523956 382.555847,259.378113 387.655121,265.463715 
	C393.591064,272.547760 395.352600,281.940521 388.854980,288.802795 
M373.938904,269.611511 
	C371.199036,270.045837 370.597290,271.514069 371.971039,273.830536 
	C373.666260,276.688965 375.284790,279.610138 377.220306,282.299957 
	C377.946136,283.308624 379.468781,283.743988 380.628143,284.440735 
	C381.318878,283.190887 382.427307,282.003357 382.624695,280.679901 
	C383.314728,276.053528 379.825989,271.427490 373.938904,269.611511 
z"/>
<path fill="#0D0D0D" opacity="1.000000" stroke="none" 
	d="
M515.494629,865.312134 
	C514.898621,866.170593 514.543091,866.849304 513.990906,867.107483 
	C503.703766,871.918518 488.873169,862.363586 489.100464,851.103943 
	C489.356079,838.444397 497.090515,831.795410 509.640717,833.447571 
	C510.796448,833.599670 511.949402,833.871155 513.107178,833.891724 
	C517.645996,833.972534 519.310608,836.248413 518.711060,840.660339 
	C517.612854,848.742188 516.658203,856.843445 515.494629,865.312134 
M501.305756,844.951904 
	C501.133423,848.456787 500.724548,851.977478 500.956207,855.455444 
	C501.013611,856.317627 503.207733,857.718445 504.306732,857.619385 
	C505.220154,857.536926 506.395477,855.720886 506.697662,854.487305 
	C507.284973,852.089905 507.566162,849.559692 507.537872,847.089539 
	C507.518951,845.437500 506.747253,843.794128 506.312500,842.146912 
	C504.776611,842.882080 503.240723,843.617310 501.305756,844.951904 
z"/>
<path fill="#0D0D0D" opacity="1.000000" stroke="none" 
	d="
M723.020691,786.969360 
	C726.410217,791.919189 729.567871,796.593994 732.792297,801.222351 
	C734.915161,804.269470 734.596985,806.769775 731.346924,808.737366 
	C728.937378,810.195984 726.625061,811.869080 724.084229,813.047363 
	C714.173035,817.644104 707.235535,815.104187 701.346313,804.917847 
	C696.912170,797.248291 699.206787,789.072876 707.380310,783.418823 
	C716.371033,777.199402 716.370972,777.199280 723.020691,786.969360 
M720.707214,805.265686 
	C722.221069,799.744934 716.993896,797.386658 715.029602,793.511536 
	C714.569824,792.604553 712.255371,791.780090 711.358826,792.180786 
	C710.360291,792.627136 709.514709,794.493164 709.456787,795.779663 
	C709.212097,801.211487 714.324707,805.737244 720.707214,805.265686 
z"/>
<path fill="#0D0D0D" opacity="1.000000" stroke="none" 
	d="
M804.247009,344.864197 
	C806.375610,348.235687 808.698425,351.151276 810.154785,354.449432 
	C812.900574,360.667908 811.461304,365.156769 806.219116,368.761749 
	C801.750671,371.834656 795.591797,371.710083 791.655090,367.334564 
	C788.214172,363.510010 785.554016,362.479614 781.319580,365.905670 
	C780.482544,366.582886 777.424805,365.591278 776.214905,364.475800 
	C774.465698,362.863220 772.645020,360.249298 775.522766,358.088776 
	C782.959290,352.505737 790.486633,347.032104 798.163818,341.787231 
	C801.095398,339.784424 802.587280,342.561249 804.247009,344.864197 
z"/>
<path fill="#0D0D0D" opacity="1.000000" stroke="none" 
	d="
M277.166748,735.665649 
	C275.064148,731.039917 274.055481,726.779175 277.208771,722.575989 
	C282.055878,716.114929 289.975403,715.537537 295.740326,721.722656 
	C298.411957,724.588928 300.478943,725.462891 303.664856,722.868347 
	C306.471130,720.582947 308.803864,721.541382 310.871735,724.243774 
	C313.013062,727.042297 312.218872,729.051147 309.667908,730.976868 
	C303.287659,735.793274 296.950470,740.666992 290.619537,745.548218 
	C287.831360,747.697876 285.358307,747.380432 283.305542,744.604919 
	C281.231079,741.800232 279.310730,738.881470 277.166748,735.665649 
z"/>
<path fill="#0D0D0D" opacity="1.000000" stroke="none" 
	d="
M497.718201,243.323669 
	C499.808502,248.708389 499.360596,249.699722 494.236786,250.816971 
	C490.339783,251.666702 486.365845,252.164444 482.470062,253.018936 
	C479.014099,253.776932 476.995300,252.650253 476.357544,249.131821 
	C474.874634,240.950348 473.392426,232.768677 471.878021,224.593002 
	C471.305786,221.503754 472.651703,219.822861 475.617889,219.278549 
	C479.870239,218.498230 484.126831,217.740433 488.383942,216.986252 
	C491.402191,216.451538 493.656433,217.110947 494.272003,220.594727 
	C494.934448,224.343918 492.370300,225.019867 489.661041,225.754456 
	C487.616058,226.308929 485.633606,227.093918 483.623322,227.776291 
	C483.730164,228.450104 483.837006,229.123932 483.943848,229.797745 
	C485.904633,229.797745 487.968781,229.416519 489.795349,229.911636 
	C491.419647,230.351883 493.896912,231.666153 493.993073,232.769348 
	C494.133148,234.376663 492.785126,236.439819 491.505859,237.760880 
	C489.957886,239.359482 487.819763,240.386627 485.937012,241.661072 
	C488.327393,242.013123 490.713776,242.396149 493.109650,242.705658 
	C494.551971,242.891983 496.009094,242.963867 497.718201,243.323669 
z"/>
<path fill="#0D0D0D" opacity="1.000000" stroke="none" 
	d="
M797.442383,396.732056 
	C797.941406,394.596558 798.037964,391.884033 799.305481,391.123657 
	C806.580994,386.759247 814.054871,382.696472 821.669434,378.954681 
	C822.970947,378.315094 826.188416,379.118866 826.954773,380.285004 
	C829.775269,384.576630 832.215088,389.187134 834.163208,393.938019 
	C834.692444,395.228607 833.453857,398.252869 832.175049,398.976593 
	C831.025513,399.627106 828.226440,398.727234 827.013611,397.593048 
	C825.017639,395.726562 823.715088,393.118622 822.120239,390.823242 
	C821.497437,391.140686 820.874634,391.458130 820.251770,391.775604 
	C820.865234,393.607208 821.338928,395.501495 822.125488,397.255493 
	C823.260437,399.786560 823.001343,401.703888 820.440491,403.162354 
	C817.854248,404.635345 816.020386,403.928558 814.628235,401.477325 
	C814.464172,401.188477 814.315979,400.842407 814.061890,400.660797 
	C812.482910,399.532288 810.875732,398.443207 809.277893,397.341064 
	C809.494629,399.243988 809.626648,401.162323 809.968872,403.042389 
	C810.111267,403.824371 811.088074,404.564789 811.016418,405.254608 
	C810.805969,407.281586 810.910278,409.917969 809.702087,411.137482 
	C807.576782,413.282654 805.338623,411.752075 804.064636,409.445801 
	C801.811462,405.366852 799.732605,401.191620 797.442383,396.732056 
z"/>
<path fill="#0D0D0D" opacity="1.000000" stroke="none" 
	d="
M785.471741,744.923096 
	C783.765930,745.310730 781.836365,745.556396 780.654846,746.627258 
	C778.544006,748.540405 776.765808,750.432739 773.857788,748.118408 
	C770.993591,745.838928 772.009827,743.545593 773.800354,741.220886 
	C774.305786,740.564575 775.049194,739.868835 775.109497,739.143433 
	C775.204590,738.000000 774.813965,736.816223 774.628967,735.649475 
	C773.600281,735.902466 772.298706,735.848206 771.597961,736.470459 
	C769.995972,737.892761 768.942688,740.076721 767.175903,741.122192 
	C765.873535,741.892822 763.190674,742.045654 762.227783,741.206421 
	C761.204895,740.314636 760.623901,737.318359 761.345154,736.299316 
	C764.500305,731.841309 768.051392,727.628235 771.814575,723.664001 
	C772.629028,722.806030 775.495361,722.612671 776.428528,723.355164 
	C783.440613,728.934204 790.303040,734.716431 796.939575,740.735779 
	C797.915894,741.621277 798.256287,744.640503 797.512024,745.733459 
	C794.813538,749.695984 791.557068,753.283325 788.453552,756.963623 
	C786.335144,759.475586 784.081726,759.493713 781.563477,757.353271 
	C778.971375,755.150269 780.416931,753.332092 781.760925,751.327209 
	C783.107971,749.317627 784.316040,747.214905 785.471741,744.923096 
z"/>
<path fill="#0D0D0D" opacity="1.000000" stroke="none" 
	d="
M716.599609,273.714417 
	C713.487854,272.245178 710.675903,270.873657 707.864014,269.502136 
	C707.494263,270.054138 707.124573,270.606171 706.754822,271.158203 
	C708.025208,272.391876 709.640625,273.430664 710.476074,274.909973 
	C711.455322,276.643555 712.649841,279.032684 712.156799,280.652100 
	C711.245728,283.644409 708.617676,283.668884 706.052002,282.096710 
	C705.204285,281.577271 704.312439,280.920471 703.381104,280.804169 
	C702.393921,280.680847 700.787170,280.811676 700.448914,281.402679 
	C700.035400,282.125061 700.295776,283.799744 700.911865,284.425934 
	C702.167847,285.702515 703.807312,286.637848 705.379333,287.559235 
	C708.058167,289.129303 708.638184,291.084778 706.967041,293.773804 
	C705.221252,296.583008 703.123718,295.775879 700.992371,294.468658 
	C697.166260,292.121918 693.391357,289.691681 689.571045,287.335266 
	C686.698792,285.563599 686.455872,283.354706 688.161011,280.591553 
	C692.439575,273.658112 696.653870,266.684998 700.884888,259.722260 
	C702.554321,256.975159 704.625977,256.166901 707.525085,258.042084 
	C711.154541,260.389679 715.022034,262.401093 718.471313,264.979645 
	C719.818054,265.986481 721.259888,268.366150 720.940308,269.712860 
	C720.561523,271.309021 718.328735,272.465240 716.599609,273.714417 
z"/>
<path fill="#0D0D0D" opacity="1.000000" stroke="none" 
	d="
M636.721130,240.398651 
	C639.978333,241.428009 641.500000,243.558548 639.787048,246.121643 
	C638.846619,247.528931 636.219910,247.977432 634.255798,248.463440 
	C633.233276,248.716461 631.972900,247.863449 630.868347,247.977676 
	C630.033936,248.063950 628.609619,248.915207 628.625916,249.385056 
	C628.657959,250.304947 629.295593,251.618744 630.069336,252.015778 
	C631.973389,252.992859 634.451782,253.110779 636.020142,254.400208 
	C637.296814,255.449829 638.359924,257.848328 638.062195,259.362457 
	C637.843445,260.474976 635.072388,262.078094 633.782776,261.809601 
	C629.087708,260.832153 624.520996,259.210266 619.937866,257.732239 
	C616.857605,256.738892 615.848572,254.558014 616.776428,251.476776 
	C619.075378,243.842789 621.391968,236.214111 623.678955,228.576523 
	C624.680176,225.232513 626.811829,224.078110 630.148254,225.078934 
	C634.284546,226.319672 638.425171,227.545792 642.565613,228.772614 
	C645.443848,229.625443 647.150024,231.643417 645.586975,234.303452 
	C644.715576,235.786438 642.143494,236.848480 640.246277,237.007370 
	C637.741272,237.217133 635.146545,236.355118 632.590332,235.953842 
	C632.413574,236.578568 632.236816,237.203293 632.060059,237.828018 
	C633.503967,238.645004 634.947876,239.462006 636.721130,240.398651 
z"/>
<path fill="#0D0D0D" opacity="1.000000" stroke="none" 
	d="
M391.019714,825.952515 
	C389.005676,830.457153 386.136627,830.921814 382.409088,828.683167 
	C378.850739,826.546143 375.233246,824.507385 371.636078,822.435303 
	C369.263885,821.068848 368.278351,819.377747 369.906036,816.722168 
	C371.489777,814.138428 373.315033,813.452515 376.127167,814.950195 
	C378.304199,816.109680 380.727997,816.805847 383.042084,817.708008 
	C383.379791,817.132019 383.717468,816.556091 384.055176,815.980164 
	C382.558685,814.742004 381.179840,813.310059 379.537201,812.312622 
	C377.268616,810.935242 376.578857,809.439026 377.946259,806.996704 
	C379.284637,804.606140 380.807892,803.699341 383.624969,804.769287 
	C385.765167,805.581970 388.210968,809.017822 390.249237,805.303650 
	C390.604553,804.656250 387.360168,801.709778 385.460907,800.233582 
	C383.271698,798.531982 380.758942,797.241882 382.887665,793.934204 
	C384.830353,790.915466 387.208801,791.585754 389.758698,793.138367 
	C393.020813,795.124634 396.303864,797.086609 399.664825,798.897766 
	C403.369293,800.894043 404.036835,803.449829 401.879242,807.072449 
	C398.225403,813.207458 394.742859,819.444519 391.019714,825.952515 
z"/>
<path fill="#0D0D0D" opacity="1.000000" stroke="none" 
	d="
M615.695251,827.474182 
	C618.172791,836.906860 620.554016,846.057617 622.392273,855.316162 
	C622.656006,856.644348 620.612549,859.408081 619.095825,859.927185 
	C614.718079,861.425476 610.099243,862.431641 605.498474,862.946960 
	C603.962036,863.119019 600.856628,861.267944 600.824646,860.266418 
	C600.767029,858.463623 602.054382,855.992004 603.571411,854.916382 
	C605.662231,853.434021 608.487915,852.987915 610.998718,852.097839 
	C610.885742,851.438354 610.772766,850.778931 610.659790,850.119507 
	C608.908813,850.119507 607.115417,849.876892 605.416260,850.173706 
	C602.536926,850.676636 600.484741,850.254211 599.826233,846.974060 
	C599.177124,843.740967 600.844421,842.367371 603.687683,841.767029 
	C604.497437,841.596130 605.442261,841.474243 606.028137,840.978699 
	C606.814026,840.313843 607.311157,839.307800 607.932251,838.448242 
	C607.032104,837.866577 606.150513,836.836975 605.227783,836.798706 
	C603.429443,836.724121 601.498352,837.695312 599.826050,837.321472 
	C598.039124,836.922058 596.487366,835.470459 594.832947,834.478149 
	C595.873840,832.915527 596.671875,830.275757 597.997681,829.976807 
	C603.722473,828.686279 609.601868,828.081299 615.695251,827.474182 
z"/>
<path fill="#0D0D0D" opacity="1.000000" stroke="none" 
	d="
M274.590332,683.678711 
	C273.054016,680.196838 275.014771,678.320435 277.513245,677.814453 
	C278.812836,677.551208 281.084381,679.077576 281.984192,680.420471 
	C284.565216,684.272522 286.615814,688.475647 288.982361,692.477234 
	C290.462067,694.979248 290.102997,696.779053 287.511444,698.236694 
	C279.985687,702.469727 272.487549,706.752319 265.005829,711.062805 
	C262.477448,712.519470 260.647797,712.002686 259.221558,709.482422 
	C256.931854,705.436401 254.536224,701.450195 252.257812,697.397949 
	C251.026535,695.208130 250.244354,692.508606 253.336624,691.674805 
	C255.234283,691.163086 258.054626,691.895081 259.680206,693.111511 
	C261.655182,694.589478 262.808624,697.165222 264.317474,699.265991 
	C264.976044,698.898438 265.634583,698.530945 266.293152,698.163391 
	C265.497986,696.209656 264.234833,694.299011 264.049683,692.289124 
	C263.889740,690.552673 264.445343,687.814819 265.616119,687.142944 
	C266.897766,686.407532 269.465546,687.116516 271.078064,687.955017 
	C273.131287,689.022644 274.788391,690.851990 276.616272,692.352905 
	C276.072510,689.705994 275.531189,687.058594 274.978485,684.413574 
	C274.946106,684.258606 274.821930,684.122803 274.590332,683.678711 
z"/>
<path fill="#0D0D0D" opacity="1.000000" stroke="none" 
	d="
M324.004028,343.008789 
	C315.464478,353.064453 315.164337,353.065216 305.796631,344.283936 
	C301.801971,340.539307 297.774597,336.826508 293.672180,333.200989 
	C291.086731,330.916077 290.604248,328.639252 293.035797,325.969574 
	C296.276062,322.412018 299.267059,318.584534 302.830902,315.393158 
	C303.778198,314.544922 307.061859,314.944397 308.119507,315.965546 
	C309.166779,316.976654 309.453857,319.786865 308.827179,321.286865 
	C307.845734,323.635834 305.814911,325.546356 304.228577,327.642609 
	C304.726227,328.179901 305.223846,328.717163 305.721497,329.254456 
	C307.283966,328.182953 309.014130,327.287323 310.367737,325.996735 
	C312.183594,324.265472 313.781128,323.437683 315.895050,325.470612 
	C317.946533,327.443451 318.975952,329.429871 316.604675,331.854279 
	C316.140503,332.328857 315.484375,332.772827 315.316101,333.347778 
	C314.939453,334.634949 314.814270,335.995697 314.586639,337.326477 
	C316.038605,337.042358 317.602142,336.999023 318.905853,336.394989 
	C319.880737,335.943359 320.668060,334.862579 321.282654,333.898590 
	C323.350647,330.655243 325.608673,330.878204 328.228119,333.213867 
	C331.239502,335.899017 328.748047,337.520630 327.158966,339.346497 
	C326.178253,340.473358 325.195862,341.598816 324.004028,343.008789 
z"/>
<path fill="#0D0D0D" opacity="1.000000" stroke="none" 
	d="
M457.761047,849.411133 
	C458.367737,848.404114 459.175446,846.809937 458.833405,846.505005 
	C457.899719,845.672241 456.146027,845.691589 455.332214,844.807312 
	C454.079987,843.446777 452.175934,841.003174 452.640991,840.115540 
	C453.463226,838.546326 455.767792,837.577698 457.637329,836.808167 
	C458.560669,836.428040 459.944885,837.327637 461.033112,837.140320 
	C462.007111,836.972595 462.861115,836.107849 463.768066,835.550659 
	C463.181396,834.674866 462.786957,833.398010 461.968536,833.005676 
	C460.192017,832.153992 457.902771,832.158569 456.384064,831.046875 
	C455.072479,830.086731 453.589661,827.817200 453.915375,826.584290 
	C454.262604,825.269836 456.837158,823.433655 458.103241,823.664978 
	C463.472931,824.645996 468.773376,826.143799 473.957855,827.875671 
	C474.914368,828.195190 475.977142,830.652222 475.700348,831.815613 
	C473.663116,840.378052 471.495636,848.925171 468.840942,857.309814 
	C468.400269,858.701538 465.254089,860.259705 463.581757,860.039856 
	C459.169922,859.460144 454.867798,857.992493 450.547974,856.785583 
	C447.790192,856.014954 446.181305,854.449158 447.192871,851.276550 
	C448.169495,848.213440 450.219543,847.649475 453.055298,848.478638 
	C454.484802,848.896606 455.974854,849.107544 457.761047,849.411133 
z"/>
<path fill="#0D0D0D" opacity="1.000000" stroke="none" 
	d="
M681.392334,245.247650 
	C683.125671,245.600098 684.574646,245.940903 685.968933,246.435669 
	C689.015381,247.516724 689.315613,249.466995 687.343933,251.777954 
	C681.406494,258.737091 675.422974,265.657288 669.410828,272.552094 
	C666.616455,275.756744 663.363342,274.134796 660.807556,272.548004 
	C659.046753,271.454773 656.946838,268.851288 657.090027,267.093079 
	C657.831787,257.983704 659.129639,248.910492 660.570557,239.878403 
	C660.756653,238.711899 663.062622,236.873688 664.101746,237.047714 
	C666.916382,237.518982 670.437134,238.142868 670.064880,242.320206 
	C669.740662,245.959290 669.029968,249.564041 668.487366,253.183563 
	C668.197693,255.115646 667.902283,257.046875 667.379578,260.494843 
	C672.637024,254.667465 676.860107,249.986649 681.392334,245.247650 
z"/>
<path fill="#0D0D0D" opacity="1.000000" stroke="none" 
	d="
M422.408752,846.500122 
	C422.311493,841.963257 422.379517,837.709534 422.604218,833.464050 
	C422.716553,831.342041 423.115021,829.235107 423.384094,827.121399 
	C422.962921,826.870361 422.541748,826.619385 422.120575,826.368347 
	C419.473785,830.140991 416.712555,833.839722 414.212646,837.707336 
	C411.750000,841.517334 408.740540,842.017517 404.819366,840.134277 
	C402.418274,838.981018 401.825439,837.520630 403.459442,835.481934 
	C409.382782,828.091614 415.208344,820.606628 421.516571,813.556152 
	C422.660461,812.277649 426.347931,811.975342 428.065247,812.827148 
	C430.388031,813.979248 433.606018,816.737549 433.540497,818.710449 
	C433.238037,827.816467 432.146332,836.919312 430.887848,845.960693 
	C430.284912,850.292358 428.048309,850.403259 422.408752,846.500122 
z"/>
<path fill="#0D0D0D" opacity="1.000000" stroke="none" 
	d="
M213.001923,526.998352 
	C213.082764,524.029297 212.633469,521.356384 213.423325,519.121399 
	C213.986877,517.526733 216.215714,515.537781 217.700745,515.538330 
	C219.084961,515.538879 220.914398,517.713379 221.721832,519.340759 
	C222.473953,520.856567 221.922195,522.967773 222.368958,524.707825 
	C222.604858,525.626648 223.746262,526.312927 224.478821,527.104187 
	C225.225983,526.331726 226.233353,525.677002 226.650467,524.755188 
	C227.108475,523.742981 226.628586,522.157288 227.256104,521.401855 
	C228.558228,519.834290 230.210938,517.842407 231.937271,517.604431 
	C233.015671,517.455750 235.701950,520.306885 235.575897,521.609619 
	C235.075455,526.781738 237.656296,528.443054 242.080276,528.864685 
	C245.487503,529.189392 247.079208,531.090454 246.849136,534.545410 
	C246.617203,538.028381 244.345398,539.029236 241.386932,538.922974 
	C233.437271,538.637390 225.469543,538.458679 217.563614,537.681763 
	C215.962402,537.524414 214.077560,535.160400 213.281006,533.384277 
	C212.530823,531.711487 213.044296,529.471985 213.001923,526.998352 
z"/>
<path fill="#0D0D0D" opacity="1.000000" stroke="none" 
	d="
M855.183960,548.342712 
	C854.777039,551.363159 854.003418,554.247192 850.804626,553.460815 
	C849.244446,553.077087 847.431580,550.457214 847.188110,548.653198 
	C846.663513,544.766296 844.994690,542.943237 841.126831,542.986877 
	C837.058655,543.032837 834.953003,541.159973 835.104065,536.908203 
	C835.262634,532.447510 838.248718,531.920532 841.661743,532.056030 
	C849.124878,532.352173 856.583801,532.751831 864.045715,533.081421 
	C867.306091,533.225525 868.892334,534.950562 868.913452,538.143799 
	C868.942017,542.464111 869.294922,546.836304 868.722717,551.080200 
	C868.493530,552.780090 866.404236,555.133606 864.755920,555.538696 
	C861.829346,556.257874 860.330139,553.972900 860.142700,551.063782 
	C860.089355,550.236450 860.272156,549.369629 860.090759,548.579712 
	C859.719849,546.964294 859.175293,545.388794 858.702271,543.796814 
	C857.551453,545.183472 856.400574,546.570129 855.183960,548.342712 
z"/>
<path fill="#0D0D0D" opacity="1.000000" stroke="none" 
	d="
M277.377991,345.614319 
	C279.481750,345.429047 281.827484,344.850342 283.110931,345.763916 
	C284.121094,346.482971 284.622040,349.483704 283.951447,350.700836 
	C282.021606,354.203430 283.199982,356.310364 286.024994,358.267609 
	C289.991455,361.015717 293.873932,363.888458 297.893707,366.555054 
	C300.683044,368.405365 301.881104,370.301605 299.678894,373.497589 
	C297.448364,376.734650 295.041840,376.785065 292.080597,374.706543 
	C287.995544,371.839233 283.831360,369.083740 279.769806,366.184113 
	C277.299622,364.420624 275.197784,363.723999 272.992828,366.694580 
	C271.120819,369.216614 268.235291,369.140869 266.598877,366.925812 
	C265.620575,365.601562 265.662933,362.480713 266.580505,360.986877 
	C269.794800,355.753876 273.588379,350.876617 277.377991,345.614319 
z"/>
<path fill="#0D0D0D" opacity="1.000000" stroke="none" 
	d="
M820.809448,702.572876 
	C824.391602,704.313110 824.819519,706.634216 822.881165,709.624268 
	C819.621399,714.652832 816.389954,719.699951 813.177368,724.758728 
	C811.690491,727.100098 809.851990,727.919495 807.309875,726.380920 
	C804.914368,724.931091 804.058350,722.995789 805.728943,720.548950 
	C808.088501,717.092896 806.445007,715.132202 803.463013,713.337585 
	C799.185303,710.763306 795.048340,707.955811 790.780884,705.363708 
	C787.945923,703.641663 787.273865,701.646301 789.174927,698.766479 
	C791.029541,695.957153 793.154968,694.859924 796.254456,696.859070 
	C800.450500,699.565491 804.745850,702.123901 808.868286,704.936646 
	C811.747803,706.901306 814.034363,707.661438 816.318848,704.018250 
	C816.949707,703.012024 819.078369,702.944946 820.809448,702.572876 
z"/>
<path fill="#0D0D0D" opacity="1.000000" stroke="none" 
	d="
M732.989624,285.017242 
	C735.367981,283.231201 737.616760,280.370575 739.690186,280.492462 
	C744.526123,280.776703 745.930420,285.114960 742.935791,289.057526 
	C739.825317,293.152588 736.661377,297.221161 733.283508,301.094330 
	C730.799438,303.942719 730.577820,306.223999 733.867249,308.486084 
	C734.954041,309.233398 736.323364,310.032623 736.771484,311.131195 
	C737.357056,312.566833 737.866333,314.987488 737.123047,315.782196 
	C736.073914,316.903992 733.194092,317.896851 732.235962,317.252136 
	C727.573486,314.114594 723.139099,310.576508 719.016357,306.756683 
	C718.294922,306.088257 718.891602,302.987823 719.831055,301.710205 
	C723.956787,296.099182 728.431946,290.745056 732.989624,285.017242 
z"/>
<path fill="#0D0D0D" opacity="1.000000" stroke="none" 
	d="
M358.169891,783.206177 
	C356.535980,781.243958 355.068390,779.456116 353.320892,778.005554 
	C351.225525,776.266235 350.311646,774.651794 352.191925,772.133057 
	C353.993011,769.720459 355.805176,769.600647 358.086334,771.349731 
	C361.907776,774.279724 365.747925,777.188293 369.650787,780.008179 
	C372.134094,781.802368 372.006531,783.706360 370.325806,785.928650 
	C365.417114,792.418823 360.532623,798.927368 355.651245,805.438171 
	C353.529053,808.268677 351.236511,809.160156 348.068604,806.761597 
	C344.715210,804.222534 345.779083,801.807922 347.672333,799.079895 
	C351.242188,793.935913 354.704987,788.717529 358.169891,783.206177 
z"/>
<path fill="#0D0D0D" opacity="1.000000" stroke="none" 
	d="
M842.806274,495.096008 
	C841.629456,491.943054 840.557007,489.025604 839.986694,486.013092 
	C839.799927,485.026611 840.668335,483.149353 841.498840,482.827942 
	C842.661133,482.378082 845.301697,482.678802 845.467529,483.221527 
	C846.537537,486.722351 847.201233,490.365356 847.628418,494.005096 
	C847.657715,494.254608 844.683533,494.856537 842.806274,495.096008 
z"/>
<path fill="#0D0D0D" opacity="1.000000" stroke="none" 
	d="
M235.488571,599.614380 
	C235.128677,596.464355 235.665115,593.713318 238.889740,593.926331 
	C240.251175,594.016357 241.457520,596.671570 242.694489,598.193237 
	C242.880905,598.422546 242.880936,598.826416 242.912796,599.154785 
	C243.199127,602.106079 245.256027,605.988403 240.563889,606.958008 
	C236.067032,607.887268 236.586517,603.622864 235.736862,600.981201 
	C235.636017,600.667664 235.610214,600.330017 235.488571,599.614380 
z"/>
<path fill="#000000" opacity="1.000000" stroke="none" 
	d="
M748.988037,775.010132 
	C748.979980,775.017395 748.748413,774.916565 748.748413,774.916565 
	C748.748413,774.916565 748.922729,774.923462 748.964355,774.955322 
	C749.006042,774.987244 748.996033,775.002869 748.988037,775.010132 
z"/>
<path fill="#000000" opacity="1.000000" stroke="none" 
	d="
M752.010132,766.991516 
	C752.017334,766.985107 752.248901,767.082886 752.248901,767.082886 
	C752.248901,767.082886 752.077209,767.074646 752.035767,767.042664 
	C751.994385,767.010681 752.002930,766.997925 752.010132,766.991516 
z"/>
<path fill="#000000" opacity="1.000000" stroke="none" 
	d="
M342.008423,298.992981 
	C342.014801,298.987457 342.246277,299.082123 342.246277,299.082123 
	C342.246277,299.082123 342.077667,299.073181 342.036621,299.041199 
	C341.995544,299.009216 342.002045,298.998474 342.008423,298.992981 
z"/>
<path fill="#000000" opacity="1.000000" stroke="none" 
	d="
M338.988770,307.009399 
	C338.981049,307.016296 338.749481,306.916809 338.749481,306.916809 
	C338.749481,306.916809 338.922760,306.924225 338.964294,306.956177 
	C339.005829,306.988159 338.996460,307.002533 338.988770,307.009399 
z"/>
<path fill="#000000" opacity="1.000000" stroke="none" 
	d="
M237.485794,441.116394 
	C238.816757,436.735199 242.285843,436.465546 245.194672,437.464600 
	C248.411499,438.569397 251.356812,440.780029 253.932358,443.060272 
	C254.276047,443.364532 252.212845,448.028076 250.478210,448.729767 
	C245.386169,450.789612 239.137238,446.937744 237.485794,441.116394 
z"/>
<path fill="#000000" opacity="1.000000" stroke="none" 
	d="
M323.552002,754.687866 
	C329.400665,755.550415 331.265198,758.811523 328.284973,763.161987 
	C326.669861,765.519653 324.245697,767.678833 321.694489,768.899170 
	C320.280579,769.575562 317.154419,768.731018 316.081665,767.476257 
	C315.034302,766.251160 314.749878,762.991211 315.662292,761.756287 
	C317.663086,759.048279 320.632690,757.056091 323.552002,754.687866 
z"/>
<path fill="#000000" opacity="1.000000" stroke="none" 
	d="
M768.134033,331.227417 
	C765.165649,333.431793 762.127197,335.142059 759.478027,332.024506 
	C756.885315,328.973328 758.475281,325.780518 760.666748,323.016907 
	C761.280762,322.242615 762.001099,321.535889 762.751160,320.889282 
	C765.486511,318.531158 768.590637,317.078766 771.606323,319.972168 
	C774.590637,322.835480 772.537476,325.782684 770.768677,328.439209 
	C770.135376,329.390320 769.205505,330.143982 768.134033,331.227417 
z"/>
<path fill="#000000" opacity="1.000000" stroke="none" 
	d="
M834.917358,622.176392 
	C838.752319,622.757568 842.428345,622.989197 845.645081,624.326172 
	C847.039307,624.905640 848.436157,627.968384 848.098511,629.527832 
	C847.757996,631.100159 845.232727,633.335022 843.727905,633.287292 
	C840.421204,633.182434 836.792908,632.448303 833.960083,630.817383 
	C830.155701,628.627258 830.654480,625.310730 834.917358,622.176392 
z"/>
<path fill="#000000" opacity="1.000000" stroke="none" 
	d="
M586.662720,239.555420 
	C587.189758,235.773254 587.550476,232.297623 588.317505,228.914108 
	C589.019958,225.815430 590.954529,225.127640 593.316589,227.446243 
	C596.313904,230.388458 595.069336,239.486618 591.242310,241.205032 
	C590.137207,241.701263 588.218933,240.386551 586.662720,239.555420 
z"/>
<path fill="#000000" opacity="1.000000" stroke="none" 
	d="
M374.267059,269.608582 
	C379.825989,271.427490 383.314728,276.053528 382.624695,280.679901 
	C382.427307,282.003357 381.318878,283.190887 380.628143,284.440735 
	C379.468781,283.743988 377.946136,283.308624 377.220306,282.299957 
	C375.284790,279.610138 373.666260,276.688965 371.971039,273.830536 
	C370.597290,271.514069 371.199036,270.045837 374.267059,269.608582 
z"/>
<path fill="#000000" opacity="1.000000" stroke="none" 
	d="
M501.505310,844.652222 
	C503.240723,843.617310 504.776611,842.882080 506.312469,842.146851 
	C506.747253,843.794128 507.518951,845.437500 507.537872,847.089539 
	C507.566162,849.559692 507.284973,852.089905 506.697662,854.487305 
	C506.395477,855.720886 505.220154,857.536926 504.306732,857.619385 
	C503.207733,857.718445 501.013611,856.317627 500.956207,855.455444 
	C500.724548,851.977478 501.133423,848.456787 501.505310,844.652222 
z"/>
<path fill="#000000" opacity="1.000000" stroke="none" 
	d="
M720.433960,805.401794 
	C714.324707,805.737244 709.212097,801.211487 709.456787,795.779663 
	C709.514709,794.493164 710.360291,792.627136 711.358826,792.180786 
	C712.255371,791.780090 714.569824,792.604553 715.029602,793.511536 
	C716.993896,797.386658 722.221069,799.744934 720.433960,805.401794 
z"/>
</svg>